<svg xmlns="http://www.w3.org/2000/svg"  viewBox="0 0 78.477 59.044">
  <g id="architecture" transform="translate(-230.781 -272.572)">
    <g id="Group_14" data-name="Group 14" transform="translate(233.529 285.039)">
      <path id="Path_144" data-name="Path 144" d="M2709.232,338.656l21.132-15.9,18.8,15.9" transform="translate(-2711.529 -322.756)" fill="none" stroke="#6cae31" stroke-width="1.5"/>
      <path id="Path_145" data-name="Path 145" d="M2745.888,407.568v32.1h35.295V408.34" transform="translate(-2745.554 -393.843)" fill="none" stroke="#6cae31" stroke-width="1.5"/>
      <g id="Ellipse_16" data-name="Ellipse 16" transform="translate(10.529 15.665)" fill="none" stroke="#6cae31" stroke-width="1.5">
        <circle cx="7.428" cy="7.428" r="7.428" stroke="none"/>
        <circle cx="7.428" cy="7.428" r="6.678" fill="none"/>
      </g>
    </g>
    <path id="Path_171" data-name="Path 171" d="M4021,352.538l21.761-19.524,22.178,21.992" transform="translate(-3756.206 -56.513)" fill="none" stroke="#6cae31" stroke-width="1.5"/>
    <path id="Path_172" data-name="Path 172" d="M4057.5,353.152V388.1h-11.726V369.308h-13.887V388.1h-12.515" transform="translate(-3751.864 -57.234)" fill="none" stroke="#6cae31" stroke-width="1.5"/>
    <g id="Path_173" data-name="Path 173" transform="translate(279.917 292.151)" fill="none">
      <path d="M6.66,0A6.66,6.66,0,1,1,0,6.66,6.66,6.66,0,0,1,6.66,0Z" stroke="none"/>
      <path d="M 6.660406112670898 1.499996185302734 C 3.814946174621582 1.499996185302734 1.499996185302734 3.814946174621582 1.499996185302734 6.660406112670898 C 1.499996185302734 9.505866050720215 3.814946174621582 11.82081604003906 6.660406112670898 11.82081604003906 C 9.505866050720215 11.82081604003906 11.82081604003906 9.505866050720215 11.82081604003906 6.660406112670898 C 11.82081604003906 3.814946174621582 9.505866050720215 1.499996185302734 6.660406112670898 1.499996185302734 M 6.660406112670898 -3.814697265625e-06 C 10.33884620666504 -3.814697265625e-06 13.32081604003906 2.981966018676758 13.32081604003906 6.660406112670898 C 13.32081604003906 10.33884620666504 10.33884620666504 13.32081604003906 6.660406112670898 13.32081604003906 C 2.981966018676758 13.32081604003906 -3.814697265625e-06 10.33884620666504 -3.814697265625e-06 6.660406112670898 C -3.814697265625e-06 2.981966018676758 2.981966018676758 -3.814697265625e-06 6.660406112670898 -3.814697265625e-06 Z" stroke="none" fill="#6cae31"/>
    </g>
    <path id="Path_174" data-name="Path 174" d="M4019.78,345.937V327.108h8.974v10.707" transform="translate(-3750.339 -53.786)" fill="none" stroke="#6cae31" stroke-width="1.5"/>
  </g>
</svg>
