<svg xmlns="http://www.w3.org/2000/svg" xmlns:xlink="http://www.w3.org/1999/xlink" width="918.453" height="700.546" viewBox="0 0 918.453 700.546">
  <defs>
    <filter id="sky">
      <feOffset dx="12" dy="-6" input="SourceAlpha"/>
      <feGaussianBlur stdDeviation="5.5" result="blur"/>
      <feFlood flood-opacity="0.161" result="color"/>
      <feComposite operator="out" in="SourceGraphic" in2="blur"/>
      <feComposite operator="in" in="color"/>
      <feComposite operator="in" in2="SourceGraphic"/>
    </filter>
    <filter id="sun" x="390.453" y="119.27" width="115" height="115" filterUnits="userSpaceOnUse">
      <feOffset dy="1" input="SourceAlpha"/>
      <feGaussianBlur stdDeviation="3" result="blur-2"/>
      <feFlood flood-color="#b7b7b7" flood-opacity="0.722"/>
      <feComposite operator="in" in2="blur-2"/>
      <feComposite in="SourceGraphic"/>
    </filter>
    <filter id="Path_122" x="184.085" y="293.553" width="180.126" height="81.343" filterUnits="userSpaceOnUse">
      <feOffset dy="-1" input="SourceAlpha"/>
      <feGaussianBlur stdDeviation="0.5" result="blur-3"/>
      <feFlood flood-opacity="0.161"/>
      <feComposite operator="in" in2="blur-3"/>
      <feComposite in="SourceGraphic"/>
    </filter>
    <filter id="Path_114" x="191.646" y="256.933" width="709.808" height="229.27" filterUnits="userSpaceOnUse">
      <feOffset dy="-2" input="SourceAlpha"/>
      <feGaussianBlur stdDeviation="1" result="blur-4"/>
      <feFlood flood-opacity="0.161"/>
      <feComposite operator="in" in2="blur-4"/>
      <feComposite in="SourceGraphic"/>
    </filter>
    <filter id="Path_121" x="193.146" y="275.339" width="724.808" height="236.066" filterUnits="userSpaceOnUse">
      <feOffset dx="2" dy="-2" input="SourceAlpha"/>
      <feGaussianBlur stdDeviation="3.5" result="blur-5"/>
      <feFlood flood-opacity="0.161"/>
      <feComposite operator="in" in2="blur-5"/>
      <feComposite in="SourceGraphic"/>
    </filter>
    <linearGradient id="linear-gradient" x1="0.5" x2="0.5" y2="1" gradientUnits="objectBoundingBox">
      <stop offset="0" stop-color="#93d231"/>
      <stop offset="1" stop-color="#79ab29"/>
    </linearGradient>
    <filter id="Path_113" x="185.646" y="382.27" width="260.083" height="102.168" filterUnits="userSpaceOnUse">
      <feOffset input="SourceAlpha"/>
      <feGaussianBlur stdDeviation="3" result="blur-6"/>
      <feFlood flood-opacity="0.161"/>
      <feComposite operator="in" in2="blur-6"/>
      <feComposite in="SourceGraphic"/>
    </filter>
    <linearGradient id="linear-gradient-2" x1="0.5" x2="0.5" y2="1" gradientUnits="objectBoundingBox">
      <stop offset="0" stop-color="#cbcc00" stop-opacity="0.4"/>
      <stop offset="1" stop-color="#91910c" stop-opacity="0.4"/>
    </linearGradient>
    <filter id="Path_83" x="513.005" y="238.005" width="160.097" height="225.236" filterUnits="userSpaceOnUse">
      <feOffset dx="5" dy="3" input="SourceAlpha"/>
      <feGaussianBlur stdDeviation="3" result="blur-7"/>
      <feFlood flood-opacity="0.161"/>
      <feComposite operator="in" in2="blur-7"/>
      <feComposite in="SourceGraphic"/>
    </filter>
    <filter id="Path_84" x="501.239" y="235.723" width="173.065" height="134.242" filterUnits="userSpaceOnUse">
      <feOffset dy="7" input="SourceAlpha"/>
      <feGaussianBlur stdDeviation="4" result="blur-8"/>
      <feFlood flood-opacity="0.161"/>
      <feComposite operator="in" in2="blur-8"/>
      <feComposite in="SourceGraphic"/>
    </filter>
    <filter id="Path_85" x="500.726" y="233.106" width="173.102" height="133.913" filterUnits="userSpaceOnUse">
      <feOffset dy="7" input="SourceAlpha"/>
      <feGaussianBlur stdDeviation="3" result="blur-9"/>
      <feFlood flood-opacity="0.161"/>
      <feComposite operator="in" in2="blur-9"/>
      <feComposite in="SourceGraphic"/>
    </filter>
    <filter id="Ellipse_14" x="558.763" y="294.803" width="50.443" height="50.865" filterUnits="userSpaceOnUse">
      <feOffset dx="-5" dy="8" input="SourceAlpha"/>
      <feGaussianBlur stdDeviation="3" result="blur-10"/>
      <feFlood flood-opacity="0.161"/>
      <feComposite operator="in" in2="blur-10"/>
      <feComposite in="SourceGraphic"/>
    </filter>
    <filter id="Path_97" x="582.87" y="364.527" width="56.808" height="95.715" filterUnits="userSpaceOnUse">
      <feOffset dx="3" input="SourceAlpha"/>
      <feGaussianBlur stdDeviation="3" result="blur-11"/>
      <feFlood flood-opacity="0.161"/>
      <feComposite operator="in" in2="blur-11"/>
      <feComposite in="SourceGraphic"/>
    </filter>
    <filter id="Path_98" x="582.393" y="373.039" width="51.843" height="53.268" filterUnits="userSpaceOnUse">
      <feOffset dy="5" input="SourceAlpha"/>
      <feGaussianBlur stdDeviation="3" result="blur-12"/>
      <feFlood flood-opacity="0.161"/>
      <feComposite operator="in" in2="blur-12"/>
      <feComposite in="SourceGraphic"/>
    </filter>
    <filter id="Path_102" x="582.393" y="408.247" width="51.198" height="32.962" filterUnits="userSpaceOnUse">
      <feOffset dy="1" input="SourceAlpha"/>
      <feGaussianBlur stdDeviation="3" result="blur-13"/>
      <feFlood flood-opacity="0.161"/>
      <feComposite operator="in" in2="blur-13"/>
      <feComposite in="SourceGraphic"/>
    </filter>
    <filter id="Path_83-2" x="426.239" y="278.755" width="153.942" height="181.486" filterUnits="userSpaceOnUse">
      <feOffset dx="4" input="SourceAlpha"/>
      <feGaussianBlur stdDeviation="3" result="blur-14"/>
      <feFlood flood-opacity="0.161"/>
      <feComposite operator="in" in2="blur-14"/>
      <feComposite in="SourceGraphic"/>
    </filter>
    <filter id="Path_84-2" x="415.609" y="280.166" width="167.244" height="110.968" filterUnits="userSpaceOnUse">
      <feOffset dy="7" input="SourceAlpha"/>
      <feGaussianBlur stdDeviation="4" result="blur-15"/>
      <feFlood flood-opacity="0.161"/>
      <feComposite operator="in" in2="blur-15"/>
      <feComposite in="SourceGraphic"/>
    </filter>
    <filter id="Path_85-2" x="414.334" y="278.735" width="168.954" height="109.442" filterUnits="userSpaceOnUse">
      <feOffset dy="7" input="SourceAlpha"/>
      <feGaussianBlur stdDeviation="3" result="blur-16"/>
      <feFlood flood-opacity="0.161"/>
      <feComposite operator="in" in2="blur-16"/>
      <feComposite in="SourceGraphic"/>
    </filter>
    <filter id="Path_86" x="454.261" y="377.228" width="79.768" height="67.862" filterUnits="userSpaceOnUse">
      <feOffset dx="-5" dy="9" input="SourceAlpha"/>
      <feGaussianBlur stdDeviation="3" result="blur-17"/>
      <feFlood flood-opacity="0.161"/>
      <feComposite operator="in" in2="blur-17"/>
      <feComposite in="SourceGraphic"/>
    </filter>
    <filter id="Ellipse_14-2" x="473.065" y="327.739" width="44.071" height="44.071" filterUnits="userSpaceOnUse">
      <feOffset dx="-5" dy="8" input="SourceAlpha"/>
      <feGaussianBlur stdDeviation="3" result="blur-18"/>
      <feFlood flood-opacity="0.161"/>
      <feComposite operator="in" in2="blur-18"/>
      <feComposite in="SourceGraphic"/>
    </filter>
    <filter id="Path_140" x="380.536" y="410.433" width="22.769" height="49.659" filterUnits="userSpaceOnUse">
      <feOffset dx="5" dy="3" input="SourceAlpha"/>
      <feGaussianBlur stdDeviation="3" result="blur-19"/>
      <feFlood flood-opacity="0.161"/>
      <feComposite operator="in" in2="blur-19"/>
      <feComposite in="SourceGraphic"/>
    </filter>
    <filter id="Path_139" x="371.704" y="354.448" width="46.434" height="77.145" filterUnits="userSpaceOnUse">
      <feOffset dx="8" dy="3" input="SourceAlpha"/>
      <feGaussianBlur stdDeviation="3" result="blur-20"/>
      <feFlood flood-opacity="0.161"/>
      <feComposite operator="in" in2="blur-20"/>
      <feComposite in="SourceGraphic"/>
    </filter>
    <filter id="Path_140-2" x="756.709" y="400.131" width="20.992" height="37.865" filterUnits="userSpaceOnUse">
      <feOffset dx="5" dy="3" input="SourceAlpha"/>
      <feGaussianBlur stdDeviation="3" result="blur-21"/>
      <feFlood flood-opacity="0.161"/>
      <feComposite operator="in" in2="blur-21"/>
      <feComposite in="SourceGraphic"/>
    </filter>
    <filter id="Path_139-2" x="752.285" y="365.003" width="35.841" height="55.111" filterUnits="userSpaceOnUse">
      <feOffset dx="8" dy="3" input="SourceAlpha"/>
      <feGaussianBlur stdDeviation="3" result="blur-22"/>
      <feFlood flood-opacity="0.161"/>
      <feComposite operator="in" in2="blur-22"/>
      <feComposite in="SourceGraphic"/>
    </filter>
    <filter id="Path_56" x="389.811" y="377.641" width="44.122" height="64.605" filterUnits="userSpaceOnUse">
      <feOffset dx="4" dy="7" input="SourceAlpha"/>
      <feGaussianBlur stdDeviation="3" result="blur-23"/>
      <feFlood flood-opacity="0.161"/>
      <feComposite operator="in" in2="blur-23"/>
      <feComposite in="SourceGraphic"/>
    </filter>
    <filter id="Path_56-2" x="730.419" y="374.336" width="38.383" height="54.366" filterUnits="userSpaceOnUse">
      <feOffset dx="4" dy="7" input="SourceAlpha"/>
      <feGaussianBlur stdDeviation="3" result="blur-24"/>
      <feFlood flood-opacity="0.161"/>
      <feComposite operator="in" in2="blur-24"/>
      <feComposite in="SourceGraphic"/>
    </filter>
    <linearGradient id="linear-gradient-3" x1="0.5" x2="0.5" y2="1" gradientUnits="objectBoundingBox">
      <stop offset="0" stop-color="#7dc119"/>
      <stop offset="1" stop-color="#609117"/>
    </linearGradient>
    <filter id="Path_108" x="306.179" y="425.89" width="271.35" height="95.187" filterUnits="userSpaceOnUse">
      <feOffset dy="-2" input="SourceAlpha"/>
      <feGaussianBlur stdDeviation="3" result="blur-25"/>
      <feFlood flood-opacity="0.161"/>
      <feComposite operator="in" in2="blur-25"/>
      <feComposite in="SourceGraphic"/>
    </filter>
    <filter id="Path_143" x="649.51" y="351.23" width="58.614" height="56.307" filterUnits="userSpaceOnUse">
      <feOffset dx="1" dy="1" input="SourceAlpha"/>
      <feGaussianBlur result="blur-26"/>
      <feFlood flood-opacity="0.161"/>
      <feComposite operator="in" in2="blur-26"/>
      <feComposite in="SourceGraphic"/>
    </filter>
    <filter id="Path_142" x="667.156" y="388.776" width="23.428" height="47.132" filterUnits="userSpaceOnUse">
      <feOffset dx="1" input="SourceAlpha"/>
      <feGaussianBlur stdDeviation="1.5" result="blur-27"/>
      <feFlood flood-opacity="0.161"/>
      <feComposite operator="in" in2="blur-27"/>
      <feComposite in="SourceGraphic"/>
    </filter>
    <linearGradient id="linear-gradient-4" x1="0.5" x2="0.5" y2="1" gradientUnits="objectBoundingBox">
      <stop offset="0" stop-color="#74c83c"/>
      <stop offset="1" stop-color="#4a8225"/>
    </linearGradient>
    <filter id="Path_110" x="445.183" y="408.445" width="462.27" height="160.52" filterUnits="userSpaceOnUse">
      <feOffset dy="-2" input="SourceAlpha"/>
      <feGaussianBlur stdDeviation="3" result="blur-28"/>
      <feFlood flood-opacity="0.161"/>
      <feComposite operator="in" in2="blur-28"/>
      <feComposite in="SourceGraphic"/>
    </filter>
    <linearGradient id="linear-gradient-5" x1="0.5" x2="0.5" y2="1" gradientUnits="objectBoundingBox">
      <stop offset="0" stop-color="#149236"/>
      <stop offset="1" stop-color="#0a491b"/>
    </linearGradient>
    <filter id="Path_130" x="621.457" y="467.983" width="281.497" height="86.278" filterUnits="userSpaceOnUse">
      <feOffset dy="-3" input="SourceAlpha"/>
      <feGaussianBlur stdDeviation="1.5" result="blur-29"/>
      <feFlood flood-opacity="0.161"/>
      <feComposite operator="in" in2="blur-29"/>
      <feComposite in="SourceGraphic"/>
    </filter>
    <filter id="Path_106" x="624.726" y="477.203" width="278.149" height="90.761" filterUnits="userSpaceOnUse">
      <feOffset dy="1" input="SourceAlpha"/>
      <feGaussianBlur stdDeviation="3" result="blur-30"/>
      <feFlood flood-opacity="0.161"/>
      <feComposite operator="in" in2="blur-30"/>
      <feComposite in="SourceGraphic"/>
    </filter>
    <filter id="Path_129" x="176.585" y="401.796" width="462.575" height="179.454" filterUnits="userSpaceOnUse">
      <feOffset dy="-3" input="SourceAlpha"/>
      <feGaussianBlur stdDeviation="3" result="blur-31"/>
      <feFlood flood-opacity="0.161"/>
      <feComposite operator="in" in2="blur-31"/>
      <feComposite in="SourceGraphic"/>
    </filter>
    <filter id="Path_105" x="209.931" y="428.589" width="416.206" height="152.018" filterUnits="userSpaceOnUse">
      <feOffset dy="-2" input="SourceAlpha"/>
      <feGaussianBlur stdDeviation="3" result="blur-32"/>
      <feFlood flood-opacity="0.161"/>
      <feComposite operator="in" in2="blur-32"/>
      <feComposite in="SourceGraphic"/>
    </filter>
    <filter id="Subtraction_15" x="75.222" y="0" width="843.232" height="631.096" filterUnits="userSpaceOnUse">
      <feOffset dx="5" dy="-5" input="SourceAlpha"/>
      <feGaussianBlur stdDeviation="5" result="blur-33"/>
      <feFlood flood-opacity="0.161"/>
      <feComposite operator="in" in2="blur-33"/>
      <feComposite in="SourceGraphic"/>
    </filter>
    <filter id="Subtraction_15-2" x="75.222" y="0" width="843.232" height="631.096" filterUnits="userSpaceOnUse">
      <feOffset dx="7" dy="-8" input="SourceAlpha"/>
      <feGaussianBlur stdDeviation="6" result="blur-34"/>
      <feFlood flood-opacity="0.161" result="color-2"/>
      <feComposite operator="out" in="SourceGraphic" in2="blur-34"/>
      <feComposite operator="in" in="color-2"/>
      <feComposite operator="in" in2="SourceGraphic"/>
    </filter>
    <filter id="Subtraction_13">
      <feOffset dx="10" dy="-11" input="SourceAlpha"/>
      <feGaussianBlur stdDeviation="6.5" result="blur-35"/>
      <feFlood flood-opacity="0.161" result="color-3"/>
      <feComposite operator="out" in="SourceGraphic" in2="blur-35"/>
      <feComposite operator="in" in="color-3"/>
      <feComposite operator="in" in2="SourceGraphic"/>
    </filter>
    <filter id="Subtraction_12">
      <feOffset dx="8" dy="-14" input="SourceAlpha"/>
      <feGaussianBlur stdDeviation="5.5" result="blur-36"/>
      <feFlood flood-opacity="0.161" result="color-4"/>
      <feComposite operator="out" in="SourceGraphic" in2="blur-36"/>
      <feComposite operator="in" in="color-4"/>
      <feComposite operator="in" in2="SourceGraphic"/>
    </filter>
    <filter id="Path_118" x="418.116" y="261.933" width="46.191" height="47.45" filterUnits="userSpaceOnUse">
      <feOffset dy="1" input="SourceAlpha"/>
      <feGaussianBlur result="blur-37"/>
      <feFlood flood-opacity="0.161"/>
      <feComposite operator="in" in2="blur-37"/>
      <feComposite in="SourceGraphic"/>
    </filter>
    <filter id="Path_128" x="177.979" y="117.479" width="128.855" height="58.633" filterUnits="userSpaceOnUse">
      <feOffset dx="2" dy="1" input="SourceAlpha"/>
      <feGaussianBlur stdDeviation="5.5" result="blur-38"/>
      <feFlood flood-opacity="0.161"/>
      <feComposite operator="in" in2="blur-38"/>
      <feComposite in="SourceGraphic"/>
    </filter>
    <filter id="Path_125" x="119.697" y="218.27" width="170.451" height="56.073" filterUnits="userSpaceOnUse">
      <feOffset dx="7" dy="3" input="SourceAlpha"/>
      <feGaussianBlur stdDeviation="3" result="blur-39"/>
      <feFlood flood-opacity="0.161"/>
      <feComposite operator="in" in2="blur-39"/>
      <feComposite in="SourceGraphic"/>
    </filter>
    <filter id="Path_127" x="733.427" y="207.969" width="159.241" height="70.643" filterUnits="userSpaceOnUse">
      <feOffset dx="1" dy="1" input="SourceAlpha"/>
      <feGaussianBlur stdDeviation="6" result="blur-40"/>
      <feFlood flood-opacity="0.161"/>
      <feComposite operator="in" in2="blur-40"/>
      <feComposite in="SourceGraphic"/>
    </filter>
    <filter id="Path_60" x="606.632" y="90.851" width="195.986" height="81.472" filterUnits="userSpaceOnUse">
      <feOffset dx="1" dy="1" input="SourceAlpha"/>
      <feGaussianBlur stdDeviation="5.5" result="blur-41"/>
      <feFlood flood-opacity="0.161"/>
      <feComposite operator="in" in2="blur-41"/>
      <feComposite in="SourceGraphic"/>
    </filter>
  </defs>
  <g id="home7" transform="translate(0 19.605)">
  <g class="sky">
    <g data-type="innerShadowGroup">
      <path id="sky-2" data-name="sky" d="M1489.706,6.2s-11.29,17.459-19.9,45.254c-5.433,17.543-11.693,37.559-6.84,63.232,4.342,22.97,36.1,64.119,60,102.838,11.837,19.176,21.056,39.549,25.248,53.259,6.4,20.917,2.339,40.47-1.331,57.52-3.586,16.661-6.8,30.792-7.727,37.782-2.712,15.619-4.783,28.979,10.3,51.355,8.7,12.911,26.882,26.976,52.792,41.3,18.563,10.265,41.3,19.054,67.778,35.956,62.6,39.956,47.725,45.409,84.568,59.513s50.023,2.371,69.3-1.348c16-3.087,35.213-10.69,55.689-13.986,3.835-.618,7.572-3.962,11.812-3.884,8.7.16,16.85-1.285,26-1.64,15.218-.589,32.4-.127,54.823,1.64,47.064,3.707,105.956,12.322,140.554,6.431s57.1-6.673,81.524-20.8c28.375-16.42,44.116-31.708,44.116-31.708L2240.358,6Z" transform="translate(-1344.529 -5.334)" fill="#9bebe7"/>
      <g transform="matrix(1, 0, 0, 1, 0, -19.6)" filter="url(#sky)">
        <path id="sky-3" data-name="sky" d="M1489.706,6.2s-11.29,17.459-19.9,45.254c-5.433,17.543-11.693,37.559-6.84,63.232,4.342,22.97,36.1,64.119,60,102.838,11.837,19.176,21.056,39.549,25.248,53.259,6.4,20.917,2.339,40.47-1.331,57.52-3.586,16.661-6.8,30.792-7.727,37.782-2.712,15.619-4.783,28.979,10.3,51.355,8.7,12.911,26.882,26.976,52.792,41.3,18.563,10.265,41.3,19.054,67.778,35.956,62.6,39.956,47.725,45.409,84.568,59.513s50.023,2.371,69.3-1.348c16-3.087,35.213-10.69,55.689-13.986,3.835-.618,7.572-3.962,11.812-3.884,8.7.16,16.85-1.285,26-1.64,15.218-.589,32.4-.127,54.823,1.64,47.064,3.707,105.956,12.322,140.554,6.431s57.1-6.673,81.524-20.8c28.375-16.42,44.116-31.708,44.116-31.708L2240.358,6Z" transform="translate(-1344.53 14.27)" fill="#fff"/>
      </g>
    </g>
  </g>
    <g class="sun">
    <g transform="matrix(1, 0, 0, 1, 0, -19.6)" filter="url(#sun)">
      <path id="sun-2" data-name="sun" d="M48.5,0A48.5,48.5,0,1,1,0,48.5,48.5,48.5,0,0,1,48.5,0Z" transform="translate(399.45 127.27)" fill="#ffdf34"/>
    </g>
    </g>
    <g transform="matrix(1, 0, 0, 1, 0, -19.6)" filter="url(#Path_122)">
      <path id="Path_122-2" data-name="Path 122" d="M1518.248,376.032l12.85,3.281,10.481-3.281,16.245-9.533s2.751,9.083,10.481,6,14.673-15.73,14.673-15.73l14.149-8.113,14.087,17.842,7.922-6.488,14.673-3.241,13.875,9.729h13.207l15.366,3.731-3.144,30.088L1522.189,427l-23.058-26.682Z" transform="translate(-1313.55 -52.6)" fill="#b1d0d6"/>
    </g>
    <g transform="matrix(1, 0, 0, 1, 0, -19.6)" filter="url(#Path_114)">
      <path id="Path_114-2" data-name="Path 114" d="M1503.426,264.932s9.465,4.589,22.851,0c8.08-2.77,12.79-5.906,22.851-8.819s11.99-5.72,19.243-3.223c13.093,4.506,4.829,7.707,18.041,7.707s14.432-11.079,14.432-11.079l15.635-7.884s15.194-4.875,22.852-3.677,27.708-9.634,27.708-9.634l18.5-27.049s12.706-2.026,17.578-5.187c9.118-5.919,20.816-18.9,20.816-18.9l16.653,21.861s5.088.371,8.326,2.223c1.58.9,8.789,16.674,11.1,18.527,4.163,2.964,15.217,4.446,15.217,4.446s-6.575,5.162,0,7.315a23.229,23.229,0,0,0,13.071,0s19.276,12.127,37.442,12.9c9.773.417,14.766.007,21.649-2.83a143.784,143.784,0,0,0,13.573-6.973l12.285,6.973,73.591,7.748,64.122-4.918,25.257,25.836s21.063-10.411,27.662-7.777,16.236,7.777,16.236,7.777,15.7,13.69,21.649,16.789,13.981-3.372,28.263-2.408,28.865,6.262,28.865,6.262,19.564,2.11,28.264,3.854S2204,290.944,2204,290.944v31.792l-3.492,77.725-700.316-34.089,3.234-79.281Z" transform="translate(-1305.55 84.74)" fill="#68869d"/>
    </g>
    <g transform="matrix(1, 0, 0, 1, 0, -19.6)" filter="url(#Path_121)">
      <path id="Path_121-2" data-name="Path 121" d="M2200.767,264.932s-9.465,4.589-22.852,0c-8.081-2.77-12.791-5.906-22.852-8.819s-11.99-5.72-19.243-3.223c-13.093,4.506-4.829,7.707-18.041,7.707s-14.433-11.079-14.433-11.079l-15.635-7.884s-15.194-4.875-22.852-3.677-27.708-9.634-27.708-9.634l-7.652-17.837s-16.26,3.162-21.131,0c-9.118-5.919-18.49-25.093-18.49-25.093l-21.131,25.093s-13.931-1.853-17.169,0c-1.58.9-5.092,7.462-7.405,9.315-4.163,2.964-15.217,4.446-15.217,4.446s6.575,5.162,0,7.315a23.229,23.229,0,0,1-13.071,0s-19.276,12.127-37.442,12.9c-9.773.417-14.766.007-21.649-2.83a143.784,143.784,0,0,1-13.573-6.973l-12.285,6.973-73.591,7.748-64.122-4.918L1667.969,270.3s-21.063-10.411-27.662-7.777-16.236,7.777-16.236,7.777-15.7,13.69-21.649,16.789-13.981-3.372-28.263-2.408-28.865,6.262-28.865,6.262-19.564,2.11-28.264,3.854-16.837-3.854-16.837-3.854v31.792l3.492,77.725L2204,366.371l-3.233-79.281Z" transform="translate(-1298.55 102.44)" fill="rgba(104,134,157,0.35)"/>
    </g>
    <g id="linedlawn2" transform="translate(-227.931 -12.399)">
      <g transform="matrix(1, 0, 0, 1, 227.93, -7.21)" filter="url(#Path_113)">
        <path id="Path_113-2" data-name="Path 113" d="M1543.775,381.629s98.758-1.664,159.279,9.864,82.8,36.247,82.8,36.247-110.542,47.7-171.063,36.176S1543.775,381.629,1543.775,381.629Z" transform="translate(-1349.13 9.73)" fill="url(#linear-gradient)"/>
      </g>
      <path id="Intersection_2" data-name="Intersection 2" d="M113.453,11.116q1.462-3.509,2.825-6.633,4.367.424,8.667.9a182.089,182.089,0,0,0-6.655,17.086c-8.087,24.315-12.816,49.367-14.773,61.079-3.905.318-7.752.52-11.508.591C94.666,70.967,101.775,39.155,113.453,11.116Zm-45.5,71.255q-2.233-.425-4.379-.957c3.017-14.467,9.946-44.036,20.884-70.3C85.779,7.933,87.043,5,88.247,2.281c2.939.183,5.895.38,8.849.592a182.025,182.025,0,0,0-7.806,19.6c-8.047,24.2-12.769,49.121-14.744,60.906Q71.161,82.98,67.948,82.371Zm74.5-71.255q.7-1.681,1.378-3.272,4.317.655,8.444,1.383c-1.737,4.122-3.421,8.543-4.984,13.244-7.217,21.7-11.759,43.984-14.044,56.852-3.9.757-7.8,1.445-11.669,2.049C124.6,66.889,131.526,37.351,142.453,11.116ZM37.254,69.337c3.711-15.744,9.763-37.966,18.2-58.222C57.007,7.386,58.478,3.989,59.865.9q4.426.161,9,.361A181.908,181.908,0,0,0,60.29,22.47a414.691,414.691,0,0,0-13.3,52.786A76.261,76.261,0,0,1,37.254,69.337ZM170.636,13.1q4.254,1.057,8.209,2.191-1.317,3.468-2.554,7.175A408.788,408.788,0,0,0,163.57,72.2q-5.758,1.564-11.663,3.014C155.309,59.945,161.531,35.5,170.636,13.1Zm25.873,8.062q4.3,1.646,8.117,3.326a394.6,394.6,0,0,0-10.144,38.34q-5.571,1.852-11.562,3.721A413.531,413.531,0,0,1,196.509,21.166Zm24.869,11.858c3.156,1.871,5.85,3.644,8.112,5.249-1.249,4.5-2.386,8.921-3.411,13.164-3.291,1.283-7.131,2.746-11.42,4.326C216.552,48.65,218.791,40.913,221.378,33.024ZM14.612,45.182A333.061,333.061,0,0,1,26.454,11.116C28.131,7.088,29.712,3.449,31.2.162c2.908.044,5.957.1,9.113.168A181.827,181.827,0,0,0,31.29,22.47c-3.748,11.268-6.774,22.693-9.137,32.877A98.78,98.78,0,0,1,14.612,45.182ZM-1.325,8.209Q.551,3.79,2.256.027C4.632.01,7.744,0,11.469,0A181.745,181.745,0,0,0,2.725,21.18,133.5,133.5,0,0,1-1.325,8.209Z" transform="translate(426.947 384.183)" opacity="0.44" fill="url(#linear-gradient-2)"/>
    </g>
    <g id="Group_13" data-name="Group 13" transform="translate(348.039 -82.325) rotate(1)">
      <path id="Path_160" data-name="Path 160" d="M2470.541,435.223l.683-35.544,22.983-24.383.926,59.927Z" transform="translate(-2273.434 -64.142)" fill="#957c3d"/>
      <g id="Group_12" data-name="Group 12" transform="translate(186.576 319.394) rotate(-18)">
        <path id="Path_161" data-name="Path 161" d="M2467.011,392.738l-2.469.9v-2.077l38.008-17.246v2.393l-34.128,15.4C2459.538,396.11,2467.011,392.738,2467.011,392.738Z" transform="translate(-2464.071 -372.643)" fill="#2d3142"/>
        <path id="Path_162" data-name="Path 162" d="M2467.545,393.468l-2.47,1.231v-2.252l38.021-16.792v1.78Z" transform="translate(-2464.617 -375.655)" fill="#4f5d75"/>
      </g>
      <rect id="Rectangle_11" data-name="Rectangle 11" width="13.212" height="3.798" transform="translate(199.253 347.212) rotate(-8)" fill="rgba(239,198,151,0.31)"/>
      <rect id="Rectangle_17" data-name="Rectangle 17" width="13.212" height="3.798" transform="translate(199.413 356.362) rotate(-8)" fill="rgba(239,198,151,0.31)"/>
      <rect id="Rectangle_15" data-name="Rectangle 15" width="15.901" height="4.22" transform="translate(200.215 334.003) rotate(-8)" fill="rgba(239,198,151,0.31)"/>
      <rect id="Rectangle_13" data-name="Rectangle 13" width="14.325" height="3.376" transform="translate(202.083 340.954) rotate(-8)" fill="rgba(239,198,151,0.31)"/>
      <rect id="Rectangle_14" data-name="Rectangle 14" width="11.815" height="3.798" transform="translate(208.235 326.564) rotate(-8)" fill="rgba(239,198,151,0.31)"/>
    </g>
    <g id="twinhouse" transform="translate(-19.883 160.163)">
      <g id="House" transform="translate(529.61 55.339)">
        <g transform="matrix(1, 0, 0, 1, -509.73, -235.11)" filter="url(#Path_83)">
          <path id="Path_83-3" data-name="Path 83" d="M2743.859,439.82h142.1V339.581l-70.12-107-71.977,107Z" transform="translate(-2226.85 11.42)" fill="#fff8df"/>
        </g>
        <line id="Line_1" data-name="Line 1" x2="27.413" transform="translate(65.337 26.099)" fill="none" stroke="#f39c6b" stroke-width="1"/>
        <line id="Line_2" data-name="Line 2" y1="3.763" x2="45.689" transform="translate(55.313 35.775)" fill="none" stroke="#f39c6b" stroke-width="1"/>
        <line id="Line_3" data-name="Line 3" x1="62.889" y2="1.613" transform="translate(47.112 46.525)" fill="none" stroke="#f39c6b" stroke-width="1"/>
        <line id="Line_4" data-name="Line 4" y1="0.848" x2="72.087" transform="translate(42.635 58.162)" fill="none" stroke="#f39c6b" stroke-width="1"/>
        <line id="Line_5" data-name="Line 5" x1="85.317" y2="2.517" transform="translate(36.699 69.638)" fill="none" stroke="#f39c6b" stroke-width="1"/>
        <line id="Line_6" data-name="Line 6" y1="4.779" x2="96.273" transform="translate(29.066 77.129)" fill="none" stroke="#f39c6b" stroke-width="1"/>
        <line id="Line_7" data-name="Line 7" x2="108.978" y2="2.12" transform="translate(24.826 88.269)" fill="none" stroke="#f39c6b" stroke-width="1"/>
        <line id="Line_8" data-name="Line 8" x1="113.293" y2="4.3" transform="translate(20.523 97.052)" fill="none" stroke="#f39c6b" stroke-width="1"/>
        <line id="Line_9" data-name="Line 9" y1="4.3" x2="132.643" transform="translate(11.386 108.339)" fill="none" stroke="#f39c6b" stroke-width="1"/>
        <line id="Line_10" data-name="Line 10" x1="142.319" y2="1.613" transform="translate(7.086 122.852)" fill="none" stroke="#f39c6b" stroke-width="1"/>
        <line id="Line_11" data-name="Line 11" x2="142.319" y2="3.225" transform="translate(7.086 137.903)" fill="none" stroke="#f39c6b" stroke-width="1"/>
        <line id="Line_12" data-name="Line 12" x1="142.319" transform="translate(7.086 156.178)" fill="none" stroke="#f39c6b" stroke-width="1"/>
        <line id="Line_13" data-name="Line 13" y1="3.225" x2="142.319" transform="translate(7.086 163.704)" fill="none" stroke="#f39c6b" stroke-width="1"/>
        <line id="Line_14" data-name="Line 14" x1="142.319" y2="3.763" transform="translate(7.086 171.766)" fill="none" stroke="#f39c6b" stroke-width="1"/>
        <line id="Line_15" data-name="Line 15" x2="142.319" y2="3.763" transform="translate(7.086 183.592)" fill="none" stroke="#f39c6b" stroke-width="1"/>
        <line id="Line_16" data-name="Line 16" x1="142.319" y2="1.075" transform="translate(7.086 198.105)" fill="none" stroke="#f39c6b" stroke-width="1"/>
        <line id="Line_17" data-name="Line 17" x2="142.319" y2="3.225" transform="translate(7.086 208.317)" fill="none" stroke="#f39c6b" stroke-width="1"/>
        <g transform="matrix(1, 0, 0, 1, -509.73, -235.11)" filter="url(#Path_84)">
          <path id="Path_84-3" data-name="Path 84" d="M2769.451,289.636h-4.182L2841.2,179.395l73.134,110.014h-3.655L2841.2,183.7Z" transform="translate(-2252.03 61.33)" fill="#2d3142"/>
        </g>
        <g transform="matrix(1, 0, 0, 1, -509.73, -235.11)" filter="url(#Path_85)">
          <path id="Path_85-3" data-name="Path 85" d="M2763.67,296.847h-3.513l79.156-115.913L2915.26,296.46h-3.088l-72.858-109.323Z" transform="translate(-2250.43 54.17)" fill="#4f5d75"/>
        </g>
        <g id="circularwindow" transform="translate(63.037 60.697)">
          <g transform="matrix(1, 0, 0, 1, -572.76, -295.8)" filter="url(#Ellipse_14)">
            <ellipse id="Ellipse_14-3" data-name="Ellipse 14" cx="16.222" cy="16.432" rx="16.222" ry="16.432" transform="translate(572.76 295.8)" fill="#957c3d"/>
          </g>
          <ellipse id="Ellipse_13" data-name="Ellipse 13" cx="12.008" cy="12.219" rx="12.008" ry="12.219" transform="translate(4.213 4.213)" fill="#e6efff"/>
          <path id="window_shine" data-name="window shine" d="M2905.49,294.957l15.823-11.182s-.283-.3.515,0a2.731,2.731,0,0,1,.991.515l-16.993,13.077a5.629,5.629,0,0,1-.335-1.2A4.974,4.974,0,0,1,2905.49,294.957Z" transform="translate(-2901.157 -278.586)" fill="#fff"/>
          <path id="window_shine-2" data-name="window shine" d="M2905.632,296.4l8.807-6.18,7.491-5.665v1.339l-15.01,10.789-.927-.284Z" transform="translate(-2893.552 -268.488)" fill="#fff"/>
          <path id="window_shine-3" data-name="window shine" d="M2903.434,297.251l5.531-3.93,3.863-3.3,3.862-2.42,5.586-4.937s.486.5.925.917a3.586,3.586,0,0,1,.614.723l-19.081,14.811s-.381-.45-.706-.916S2903.434,297.251,2903.434,297.251Z" transform="translate(-2898.174 -275.503)" fill="#fff"/>
        </g>
        <g id="door" transform="translate(79.144 138.421)">
          <g transform="matrix(1, 0, 0, 1, -588.87, -373.53)" filter="url(#Path_97)">
            <path id="Path_97-2" data-name="Path 97" d="M3268.47,467.542V389.828h38.808v77.715Z" transform="translate(-2679.6 -16.3)" fill="#957c3d"/>
          </g>
          <g transform="matrix(1, 0, 0, 1, -588.87, -373.53)" filter="url(#Path_98)">
            <path id="Path_98-2" data-name="Path 98" d="M0,0H33.843l-.268,35.268L0,34.96Z" transform="translate(591.39 377.04)" fill="#e6efff"/>
          </g>
          <g transform="matrix(1, 0, 0, 1, -588.87, -373.53)" filter="url(#Path_102)">
            <path id="Path_102-2" data-name="Path 102" d="M1.689.282H34.516V15.243H1.318Z" transform="translate(590.08 415.96)" fill="#e6efff"/>
          </g>
          <path id="Path_99" data-name="Path 99" d="M3277.2,411.428l15.963-11.846,5.018-2.342L3277.2,414.512Z" transform="translate(-3274.599 -393.225)" fill="#fff"/>
          <path id="Path_100" data-name="Path 100" d="M3278.95,431.635c.317-.127,16.218-13.923,22.341-19.564,3.3-3.04,10.578-9.423,10.578-9.423v3.464l-32.919,28.366Z" transform="translate(-3275.605 -396.34)" fill="#fff"/>
          <path id="Path_101" data-name="Path 101" d="M3286.446,446.694l29.608-23.418v3.178l-13.382,9.2Z" transform="translate(-3279.922 -408.22)" fill="#fff"/>
          <path id="Path_103" data-name="Path 103" d="M977.244,493.455l18.685-14.98h3.881l-18.773,14.98Z" transform="translate(-970.342 -435.773)" fill="#fff"/>
          <path id="Path_104" data-name="Path 104" d="M1017.794,499.626l11.388-10.241v2.392l-9.482,7.849Z" transform="translate(-993.697 -442.057)" fill="#fff"/>
        </g>
      </g>
      <g id="House-2" data-name="House" transform="translate(443.217 100.968)">
        <g transform="matrix(1, 0, 0, 1, -423.33, -280.74)" filter="url(#Path_83-2)">
          <path id="Path_83-4" data-name="Path 83" d="M2743.859,396.07H2879.8V316.992l-67.082-84.408-68.86,84.408Z" transform="translate(-2312.62 55.17)" fill="#fff8df"/>
        </g>
        <line id="Line_1-2" data-name="Line 1" x2="21.626" transform="translate(65.846 20.589)" fill="none" stroke="#f39c6b" stroke-width="1"/>
        <line id="Line_2-2" data-name="Line 2" y1="2.968" x2="36.043" transform="translate(57.789 28.222)" fill="none" stroke="#f39c6b" stroke-width="1"/>
        <line id="Line_3-2" data-name="Line 3" x1="49.613" y2="1.272" transform="translate(51.429 36.703)" fill="none" stroke="#f39c6b" stroke-width="1"/>
        <line id="Line_4-2" data-name="Line 4" y1="0.848" x2="64.454" transform="translate(43.796 46.032)" fill="none" stroke="#f39c6b" stroke-width="1"/>
        <line id="Line_5-2" data-name="Line 5" x1="78.447" y2="2.12" transform="translate(35.739 54.937)" fill="none" stroke="#f39c6b" stroke-width="1"/>
        <line id="Line_6-2" data-name="Line 6" y1="4.664" x2="89.896" transform="translate(28.955 60.449)" fill="none" stroke="#f39c6b" stroke-width="1"/>
        <line id="Line_7-2" data-name="Line 7" x2="101.769" y2="1.696" transform="translate(25.562 69.778)" fill="none" stroke="#f39c6b" stroke-width="1"/>
        <line id="Line_8-2" data-name="Line 8" x1="113.218" y2="3.392" transform="translate(18.354 76.563)" fill="none" stroke="#f39c6b" stroke-width="1"/>
        <line id="Line_9-2" data-name="Line 9" y1="3.392" x2="128.484" transform="translate(11.145 85.467)" fill="none" stroke="#f39c6b" stroke-width="1"/>
        <line id="Line_10-2" data-name="Line 10" x1="136.117" y2="1.272" transform="translate(7.753 96.917)" fill="none" stroke="#f39c6b" stroke-width="1"/>
        <line id="Line_11-2" data-name="Line 11" x2="136.117" y2="2.544" transform="translate(7.753 108.79)" fill="none" stroke="#f39c6b" stroke-width="1"/>
        <line id="Line_12-2" data-name="Line 12" x1="136.117" transform="translate(7.753 123.207)" fill="none" stroke="#f39c6b" stroke-width="1"/>
        <line id="Line_13-2" data-name="Line 13" y1="2.544" x2="136.117" transform="translate(7.753 129.144)" fill="none" stroke="#f39c6b" stroke-width="1"/>
        <line id="Line_14-2" data-name="Line 14" x1="136.117" y2="2.968" transform="translate(7.753 135.504)" fill="none" stroke="#f39c6b" stroke-width="1"/>
        <line id="Line_15-2" data-name="Line 15" x2="136.117" y2="2.968" transform="translate(7.753 144.833)" fill="none" stroke="#f39c6b" stroke-width="1"/>
        <line id="Line_16-2" data-name="Line 16" x1="136.117" y2="0.848" transform="translate(7.753 156.282)" fill="none" stroke="#f39c6b" stroke-width="1"/>
        <line id="Line_17-2" data-name="Line 17" x2="136.117" y2="2.544" transform="translate(7.753 164.339)" fill="none" stroke="#f39c6b" stroke-width="1"/>
        <g transform="matrix(1, 0, 0, 1, -423.33, -280.74)" filter="url(#Path_84-2)">
          <path id="Path_84-4" data-name="Path 84" d="M2767.257,266.363H2763.3l72.653-86.968,70.592,86.789h-3.817l-66.775-83.394Z" transform="translate(-2335.69 105.77)" fill="#2d3142"/>
        </g>
        <g transform="matrix(1, 0, 0, 1, -423.33, -280.74)" filter="url(#Path_85-2)">
          <path id="Path_85-4" data-name="Path 85" d="M2758.13,272.376h-4.438l76.727-91.442,74.227,91.137h-3.586l-70.641-86.244Z" transform="translate(-2330.36 99.8)" fill="#4f5d75"/>
        </g>
        <g transform="matrix(1, 0, 0, 1, -423.33, -280.74)" filter="url(#Path_86)">
          <path id="Path_86-2" data-name="Path 86" d="M2861.2,378.272h61.768l-1.28,49.862h-58.567Z" transform="translate(-2392.94 -1.04)" fill="#957c3d"/>
        </g>
        <path id="Path_96" data-name="Path 96" d="M0,0H25.442V44.1H0Z" transform="translate(48.658 99.249)" fill="#e6efff"/>
        <rect id="Rectangle_6" data-name="Rectangle 6" width="25.442" height="44.1" transform="translate(77.917 99.249)" fill="#e6efff"/>
        <g id="circularwindow-2" data-name="circularwindow" transform="translate(63.732 48.004)">
          <g transform="matrix(1, 0, 0, 1, -487.07, -328.74)" filter="url(#Ellipse_14-2)">
            <circle id="Ellipse_14-4" data-name="Ellipse 14" cx="13.035" cy="13.035" r="13.035" transform="translate(487.07 328.74)" fill="#957c3d"/>
          </g>
          <circle id="Ellipse_13-2" data-name="Ellipse 13" cx="9.451" cy="9.451" r="9.451" transform="translate(3.911 3.259)" fill="#e6efff"/>
          <path id="window_shine-4" data-name="window shine" d="M2905.482,292.568l12.482-8.821s-.223-.234.406,0a2.155,2.155,0,0,1,.781.406l-13.406,10.316a4.441,4.441,0,0,1-.264-.951A3.944,3.944,0,0,1,2905.482,292.568Z" transform="translate(-2901.716 -279.775)" fill="#fff"/>
          <path id="window_shine-5" data-name="window shine" d="M2905.632,293.9l6.947-4.875,5.91-4.469v1.056l-11.842,8.512-.731-.224Z" transform="translate(-2895.755 -272.002)" fill="#fff"/>
          <path id="window_shine-6" data-name="window shine" d="M2903.434,294.172l4.364-3.1,3.047-2.6,3.047-1.909,4.406-3.9s.383.394.73.723a2.794,2.794,0,0,1,.483.57l-15.052,11.684s-.3-.355-.556-.723S2903.434,294.172,2903.434,294.172Z" transform="translate(-2898.935 -277.137)" fill="#fff"/>
        </g>
        <path id="Path_87" data-name="Path 87" d="M2869.182,409.892l4.9-5.836h3l-7.9,8.31Z" transform="translate(-2820.008 -304.36)" fill="#fff"/>
        <path id="Path_88" data-name="Path 88" d="M2869.182,424.029l21.2-20H2891l-21.822,20.894Z" transform="translate(-2820.008 -304.342)" fill="#fff"/>
        <path id="Path_89" data-name="Path 89" d="M2869.182,425.778l22.963-21.731h1.386v5.147l-24.349,23.458Z" transform="translate(-2820.008 -304.355)" fill="#fff"/>
        <path id="Path_90" data-name="Path 90" d="M2869.182,455.269l24.25-21.577v3.365l-24.25,21.082Z" transform="translate(-2820.008 -321.428)" fill="#fff"/>
        <path id="Path_91" data-name="Path 91" d="M2916.332,500.844l4.355-3.662v.99l-3.167,2.672Z" transform="translate(-2847.165 -357.996)" fill="#fff"/>
        <path id="Path_92" data-name="Path 92" d="M2937.413,409.36l7.59-6.2h1.733l-9.323,8.213Z" transform="translate(-2859.306 -303.841)" fill="#fff"/>
        <path id="Path_93" data-name="Path 93" d="M2936.967,444.478l25.422-28.095v1.523L2936.967,446Z" transform="translate(-2859.05 -311.46)" fill="#fff"/>
        <path id="Path_94" data-name="Path 94" d="M2937.495,455.02l25.046-27.1v2.493l-25.046,26.929Z" transform="translate(-2859.354 -318.104)" fill="#fff"/>
        <path id="Path_95" data-name="Path 95" d="M2950.9,483.357l19.372-17.189v2.183l-17.64,15.006Z" transform="translate(-2867.073 -340.133)" fill="#fff"/>
      </g>
      <ellipse id="Ellipse_15" data-name="Ellipse 15" cx="1.955" cy="1.629" rx="1.955" ry="1.629" transform="translate(608.623 233.049)" fill="#bbb068"/>
    </g>
    <g id="tree" transform="translate(87.475 21.438)">
      <g transform="matrix(1, 0, 0, 1, -87.47, -41.04)" filter="url(#Path_140)">
        <path id="Path_140-3" data-name="Path 140" d="M2800.339,586.556l-.668,31.659h4.769l-.364-16.711-.326-14.948Z" transform="translate(-2415.13 -170.12)" fill="#726346"/>
      </g>
      <g transform="matrix(1, 0, 0, 1, -87.47, -41.04)" filter="url(#Path_139)">
        <path id="Path_139-3" data-name="Path 139" d="M2771.059,436.641c2.48-5.855,4.814-12.235,9.731-12.235s8.025,9.178,9.462,12.235,5.766,28.689,3.991,34.491-6.586,12.419-13.453,12.419-12.046-6.856-14.012-12.419S2768.579,442.5,2771.059,436.641Z" transform="translate(-2393.53 -63.96)" fill="#8ac52e"/>
      </g>
    </g>
    <g id="tree-2" data-name="tree" transform="translate(468.056 31.992)">
      <g transform="matrix(1, 0, 0, 1, -468.06, -51.6)" filter="url(#Path_140-2)">
        <path id="Path_140-4" data-name="Path 140" d="M2800.09,586.556l-.419,19.865h2.992l-.228-10.486-.2-9.379Z" transform="translate(-2038.96 -180.42)" fill="#685a12"/>
      </g>
      <g transform="matrix(1, 0, 0, 1, -468.06, -51.6)" filter="url(#Path_139-2)">
        <path id="Path_139-4" data-name="Path 139" d="M2769.259,432.083c1.556-3.674,3.021-7.677,6.106-7.677s5.035,5.759,5.937,7.677,3.618,18,2.5,21.642-4.133,7.793-8.441,7.793-7.558-4.3-8.792-7.793S2767.7,435.757,2769.259,432.083Z" transform="translate(-2012.94 -53.4)" fill="#8ac52e"/>
      </g>
    </g>
    <g id="tree-3" data-name="tree" transform="translate(84.869 197.587)">
      <path id="Path_141" data-name="Path 141" d="M2800.153,586.556l-.483,25.464h3.446l-.263-13.441-.236-12.022Z" transform="translate(-2478.39 -377.97)" fill="#726346"/>
      <g transform="matrix(1, 0, 0, 1, -84.87, -217.19)" filter="url(#Path_56)">
        <path id="Path_56-3" data-name="Path 56" d="M585.1,155.155s4.295-9.869,8.407-9.869,8.042,9.869,8.042,9.869,6.58,25.221,4.2,29.242-4.752,7.493-12.245,7.493-10.235-3.29-12.793-7.493S585.1,155.155,585.1,155.155Z" transform="translate(-185.34 234.36)" fill="#60b22b"/>
      </g>
    </g>
    <g id="tree-4" data-name="tree" transform="translate(425.477 194.281)">
      <path id="Path_141-2" data-name="Path 141" d="M2800.047,586.556l-.377,19.869h2.689l-.2-10.488-.184-9.381Z" transform="translate(-2480.881 -388.106)" fill="#685a12"/>
      <g transform="matrix(1, 0, 0, 1, -425.48, -213.89)" filter="url(#Path_56-2)">
        <path id="Path_56-4" data-name="Path 56" d="M584.015,152.987s3.351-7.7,6.56-7.7,6.275,7.7,6.275,7.7,5.134,19.68,3.28,22.818-3.708,5.847-9.555,5.847-7.986-2.567-9.983-5.847S584.015,152.987,584.015,152.987Z" transform="translate(155.27 231.05)" fill="#60b22b"/>
      </g>
    </g>
    <g transform="matrix(1, 0, 0, 1, 0, -19.6)" filter="url(#Path_108)">
      <path id="Path_108-2" data-name="Path 108" d="M1661.726,450.051s53.853-23.117,117.19-26.854,136.16,11.9,136.16,11.9-60.19,60.78-123.528,64.518S1661.726,450.051,1661.726,450.051Z" transform="translate(-1346.55 14.27)" fill="url(#linear-gradient-3)"/>
    </g>
    <path id="Path_119" data-name="Path 119" d="M2061.167,368.764l-16.374,7.373-10.639,4.446,10.639,6.67,7.864,6.3-14.757-6.3L2028.046,379l-2.464-8.332-8.485-7.674-5.748-8.112-15.6-2.193h15.6L2036,376.136l19.182-6.874Z" transform="translate(-1305.364 -41.544)" fill="#56688f"/>
    <g id="Component_3_1" data-name="Component 3 – 1" transform="translate(649.538 331.577)">
      <g transform="matrix(1, 0, 0, 1, -649.54, -351.18)" filter="url(#Path_143)">
        <path id="Path_143-2" data-name="Path 143" d="M24.264,54.333a31.89,31.89,0,0,1-7.141-4.054,17.522,17.522,0,0,1-4.282-5.326S7,45.4,4.269,41.917,1.9,31,1.9,31-.777,27.643.239,24.4s5.724-6.353,5.724-6.353.483-6.157,2.63-8.888,8.577-2.041,8.577-2.041S19.023.012,22.893.007s7.854,5.576,7.854,5.576,8.578-2.168,11.672-.013,2.849,8.12,2.849,8.12,4.7-.132,7.62,2.022,1.182,8.63,1.182,8.63,2.616,3.424,2.613,6.6-2.627,6.1-2.627,6.1S52.205,41.671,50,43.641a5.445,5.445,0,0,1-4.765,1.275s-.007,6.029-2.866,7.365S33.8,50.261,33.8,50.261Z" transform="matrix(1, -0.02, 0.02, 1, 649.5, 352.21)" fill="#8ac52e"/>
      </g>
      <g transform="matrix(1, 0, 0, 1, -649.54, -351.18)" filter="url(#Path_142)">
        <path id="Path_142-2" data-name="Path 142" d="M0,37.9A41.818,41.818,0,0,0,4.328,26.944c.693-3.269-.149-7.674,0-10.2C4.717,10.149,2.254,0,2.254,0L5.543,1.46s.119.446.7,3.582S7.634,9.086,7.634,9.086a17.9,17.9,0,0,0,1.288-4c.778-3.136,2.149-4.042,2.149-4.042l2.4-.85a77.514,77.514,0,0,0-2.724,19.52c0,10.311,3.024,16.955,3.024,16.955s-3.159.314-6.628.6S0,37.9,0,37.9Z" transform="matrix(1, -0.02, 0.02, 1, 670.66, 393.52)" fill="#685a12"/>
      </g>
    </g>
    <g id="linedlawn" transform="translate(-472.547 4.666)">
      <g transform="matrix(1, 0, 0, 1, 472.55, -24.27)" filter="url(#Path_110)">
        <path id="Path_110-2" data-name="Path 110" d="M1799.273,492.327s77.037-55.955,188.1-76.032,256.166-8.346,256.166-8.346v61.215s-8.985,8.079-25.316,17.169c-35.153,19.565-98.966,50.209-137.443,57.164C1969.717,563.574,1799.273,492.327,1799.273,492.327Z" transform="translate(-1345.09 14.9)" fill="url(#linear-gradient-4)"/>
      </g>
      <path id="Intersection_1" data-name="Intersection 1" d="M-1992.459,11.823c-2.779-26.562-18.723-47.009-28.61-57.35q9.638-1.017,19.322-1.8c12.91,11.958,26.1,29.947,28.754,54.767,3.26,30.454-2.213,61.527-7.2,81.761a240,240,0,0,1-25.262,2.277C-2004.473,89.087-1988.5,49.626-1992.459,11.823Zm-71.887,76.808c3.78-10.045,15.315-44.049,11.888-76.808-2.2-20.989-12.613-38.161-21.766-49.544q3.542-.7,7.13-1.346,5.745-1.038,11.605-1.965c10.653,11.675,20.27,27.674,22.5,48.469,3.352,31.314-2.53,63.284-7.625,83.45C-2048.482,90.362-2056.408,89.6-2064.346,88.631Zm-56.609-9.879c4.751-15.113,11.167-41.4,8.5-66.929-1.477-14.122-6.678-26.518-12.709-36.584q8.92-2.782,18.315-5.333a82.037,82.037,0,0,1,13.86,37.53c2.957,27.623-1.27,55.754-5.806,75.846C-2106.266,81.89-2113.672,80.367-2120.955,78.753Zm188.5-66.929c-3.213-30.713-24.028-53.251-32.728-61.442q10.142-.454,20.056-.721c13.9,11.863,29.248,30.776,32.139,57.776,2.33,21.766.2,43.85-3.029,62.066-8.51,3.506-16.942,6.75-25.032,9.563C-1936.293,64.005-1929.769,37.531-1932.458,11.823ZM-2176.92,64.159c3.537-14.781,6.4-33.759,4.461-52.335a81.97,81.97,0,0,0-3.876-17.618q8.756-3.772,18.32-7.491a80.837,80.837,0,0,1,5.022,20.722c2.354,21.993.154,44.311-3.13,62.634Q-2166.89,67.154-2176.92,64.159Zm-56.439-18.75a152.126,152.126,0,0,0,1.511-23.266c5.527-3.229,11.964-6.832,19.239-10.65a212.17,212.17,0,0,1-.925,40.955C-2221,49.89-2227.668,47.5-2233.358,45.409Zm360.9-33.586c-3.387-32.367-26.322-55.655-34.024-62.64,7.275.015,14.306.085,21.022.2,13.986,11.845,29.555,30.843,32.468,58.056a193.822,193.822,0,0,1,.577,32.239c-6.775,3.538-14.1,7.238-21.744,10.955C-1872.14,38.612-1871.068,25.115-1872.458,11.823Zm60,0c-3.184-30.432-23.649-52.838-32.487-61.214,9.026.4,16.563.819,22.225,1.169a103.22,103.22,0,0,1,11.792,12.556V13.8s-.424.381-1.254,1.07Q-1812.3,13.345-1812.459,11.823Z" transform="translate(3181.929 445.994)" fill="rgba(174,225,1,0.62)" opacity="0.18"/>
    </g>
    <g transform="matrix(1, 0, 0, 1, 0, -19.6)" filter="url(#Path_130)">
      <path id="Path_130-2" data-name="Path 130" d="M2438.337,427.228h259.972a5.44,5.44,0,0,0,0-6.408c-2.392-3.345-9.569-6.972-9.569-6.972s2.577-4.648,0-7.061-10.307-2.593-10.307-2.593a10.032,10.032,0,0,0-7.79,1.167c-4.2,2.414-9.017,8.487-9.017,8.487L2649,412.228,2639.3,401.49s-2.04,3.4-7.224,2.293-13.783-2.293-13.783-2.293l-11.3,7.932-6.765,4.425h-7.177s-1.584.449-5.372-2.64-6.574,3.238-7.665,2.433c-2.393-1.765-8.823-8.435-11.215-7.552s-7.666,2.433-7.666,2.433-11.147-4.6-10,3.175c-.654.241-6.606-7.4-8.349-6.763-3.993,1.453-8.275,7.149-11.754,5.866-4.785-1.765-6.392,8.652-12.772,6-2.935-1.218-1.312-6.188-4.942-10.016s-10.89,1.424-10.89,1.424-4.6-3.46-8.989-2.136a15.866,15.866,0,0,1-7.243.712s-.389,3.531-2.781,3.531c-.627,0-1.648-3.316-5.278-3.531s-5.269,2.021-9.241,2.673c-2.487.408-5.173-6.181-8.349-2.673s-3.55,10.016-3.55,10.016a25.437,25.437,0,0,0-7.7-7.343c-4.642-2.626-10.946,7.343-10.946,7.343l-11.559,10.426Z" transform="translate(-1832.84 596.43) rotate(-11)" fill="url(#linear-gradient-5)"/>
    </g>
    <g transform="matrix(1, 0, 0, 1, 0, -19.6)" filter="url(#Path_106)">
      <path id="Path_106-2" data-name="Path 106" d="M1980.273,534.911s28.158-15.345,54.229-20c7.378-1.318,28.452-1.287,53.074-6.518,8.956-1.9,21.686-7.011,31.658-9.311,11.5-2.652,26.594-1.506,38.176-4.19,12.339-2.86,26.479-10.959,37.245-13.967,28.3-7.906,45.767-9.992,45.767-9.992v12.534a229.16,229.16,0,0,1-36.306,27c-19.294,11.717-43.623,22.788-65.564,28.1-23.907,5.787-52.887,5.711-78.236,4.408C2017.683,540.779,1980.273,534.911,1980.273,534.911Z" transform="translate(-1346.55 14.27)" fill="#5a9426"/>
    </g>
    <g transform="matrix(1, 0, 0, 1, 0, -19.6)" filter="url(#Path_129)">
      <path id="Path_129-2" data-name="Path 129" d="M2445.921,440h430.545a7.53,7.53,0,0,0,0-9.588c-3.962-5.005-15.848-10.432-15.848-10.432s4.267-6.954,0-10.566-14.842,1.945-14.842,1.945-12.85-6.349-19.809-2.738-17.578,5.04-17.578,5.04l-13.58,3.894-16.075-16.067s-3.379,5.081-11.964,3.431-22.826-3.431-22.826-3.431l-18.719,11.869-11.2,6.621h-11.886s-2.623.672-8.9-3.95-10.889,4.845-12.7,3.64c-3.962-2.641-10.819-7.161-14.781-5.84s-15.625,4.48-15.625,4.48-19.324-13.18-17.429-1.55c-1.082.361-10.94-11.068-13.826-10.119-6.613,2.174-13.7,10.7-19.466,8.777-7.924-2.641-10.586,12.945-21.152,8.983-4.86-1.823-2.174-9.259-8.186-14.986s-18.034,2.131-18.034,2.131-7.623-5.177-14.886-3.2-12,1.065-12,1.065-.645,5.283-4.607,5.283c-1.038,0-2.729-4.962-8.74-5.283s-8.726,3.024-15.3,4c-4.118.61-8.566-9.248-13.826-4s-5.88,14.986-5.88,14.986a40.329,40.329,0,0,0-12.755-10.987c-7.688-3.929-18.127,10.987-18.127,10.987L2426.778,440Z" transform="translate(-2025.9 -641.05) rotate(16)" fill="url(#linear-gradient-5)"/>
    </g>
    <g transform="matrix(1, 0, 0, 1, 0, -19.6)" filter="url(#Path_105)">
      <path id="Path_105-2" data-name="Path 105" d="M1565.478,425.318s13.247-.012,35.348,5c10.068,2.282,40.434,16.868,53.443,19.119,30.508,5.28,58.735,27.2,93.344,39.4,31.885,11.246,63.222-2.743,102.522,10.727,59.1,20.256,113.55,37.977,113.55,37.977s-84.238.062-113.55,6.7c-13.754,3.114-36.39,13.05-58.661,14.9-12,1-20.782-1.854-33.091-6.2-9.486-3.346-15.57-9.424-23.278-15.4-15.2-11.787-42.588-36.658-64.1-48.7s-36.518-16.849-56.481-28.562c-12.594-7.389-27.131-16.47-37.116-24.073A84.993,84.993,0,0,1,1565.478,425.318Z" transform="translate(-1346.55 14.27)" fill="#5b9f1e"/>
    </g>
    <g data-type="innerShadowGroup">
      <g transform="matrix(1, 0, 0, 1, 0, -19.6)" filter="url(#Subtraction_15)">
        <path id="Subtraction_15-3" data-name="Subtraction 15" d="M-525.385,594.825a78.482,78.482,0,0,1-10.718-.713,66.1,66.1,0,0,1-10.375-2.282c-14.379-4.433-23.77-15.365-35.659-29.205-12.479-14.528-28.01-32.607-55.125-49.475-27.493-17.1-50.132-27.009-68.324-34.968-16.55-7.242-29.62-12.96-39.184-21.041a159.318,159.318,0,0,1-19.318-19.193,113.977,113.977,0,0,1-12.982-18.955,93,93,0,0,1-7.6-18.592,90.017,90.017,0,0,1-3.186-18.1c-.771-10.595.226-21.8,3.047-34.242a305.052,305.052,0,0,1,9.209-30.783c2.342-6.912,4.554-13.438,6.153-19.517,1.789-6.8,2.575-12.139,2.476-16.812-.191-9.023-4.335-22.249-11.984-38.248a368.449,368.449,0,0,0-29.558-49.85c-8.742-12.575-17.954-24.91-26.862-36.839-16.808-22.508-31.324-41.948-36.187-54.374a40.34,40.34,0,0,1-2.487-15.28,75.712,75.712,0,0,1,2.469-17.219c2.638-10.487,7.383-22.382,14.105-35.354a313.713,313.713,0,0,1,16.825-28.4c4.741-7.138,8.109-11.6,8.142-11.647L-60.826-6h-745.6c-.019.032-2.329,4.032-5.53,10.494a279.386,279.386,0,0,0-11.419,26.392,191.5,191.5,0,0,0-9.553,34.656c-2.225,13.361-2.2,25.232.069,35.285a98.711,98.711,0,0,0,5.616,17A168.044,168.044,0,0,0-818.6,135.04c6.592,11.6,14.614,23.416,23.108,35.928l.006.009c8.055,11.867,16.385,24.138,24.165,37.213a271.944,271.944,0,0,1,20.661,41.728,85.415,85.415,0,0,1,5.088,20.55,102.046,102.046,0,0,1,.368,19.982c-.968,13.133-4.011,25.916-6.953,38.279-6.969,29.282-13.552,56.938,9.557,82.369,7.911,8.706,18.148,16.806,32.217,25.491,12.566,7.757,26.686,15.054,41.635,22.779,14.486,7.486,29.463,15.226,44.616,24.18a151.656,151.656,0,0,1,16.987,11.884c5.482,4.349,10.933,9.078,16.2,13.652,16.912,14.674,34.4,29.847,56.907,36.278a51.723,51.723,0,0,0,14.4,1.977h.005a83.029,83.029,0,0,0,19.13-2.547c6.7-1.573,13.967-3.789,21.662-6.135,12.516-3.816,26.7-8.141,43.987-11.541a318.576,318.576,0,0,1,62.155-5.851c37.76,0,67.488,3.107,93.717,5.848,21.389,2.235,39.859,4.165,59.028,4.165,8.167,0,15.861-.353,23.522-1.079a233.357,233.357,0,0,0,24.778-3.7A203.586,203.586,0,0,0-126.9,511.583a249.23,249.23,0,0,0,35.047-19.916A255.61,255.61,0,0,0-69,474.233c5.285-4.546,8.144-7.445,8.172-7.473v17c-.145.152-3.56,3.713-9.695,9.109a295.294,295.294,0,0,1-27.7,21.45,308.8,308.8,0,0,1-43.616,24.976,277.729,277.729,0,0,1-57.453,19.687c-21.995,4.871-45.049,7.24-70.482,7.24-23.8,0-46.123-2.091-65.177-4.052-2.434-.25-4.845-.5-7.177-.746-16.995-1.774-31.671-3.306-44.22-3.306a100.749,100.749,0,0,0-14.1.864c-14.169,2-30.9,8.586-48.613,15.553-12.434,4.891-25.291,9.948-38.184,13.8a174,174,0,0,1-19.271,4.691A108.055,108.055,0,0,1-525.385,594.825Z" transform="translate(959.28 26.27)" fill="#71b831"/>
      </g>
      <g transform="matrix(1, 0, 0, 1, 0, -19.6)" filter="url(#Subtraction_15-2)">
        <path id="Subtraction_15-4" data-name="Subtraction 15" d="M-525.385,594.825a78.482,78.482,0,0,1-10.718-.713,66.1,66.1,0,0,1-10.375-2.282c-14.379-4.433-23.77-15.365-35.659-29.205-12.479-14.528-28.01-32.607-55.125-49.475-27.493-17.1-50.132-27.009-68.324-34.968-16.55-7.242-29.62-12.96-39.184-21.041a159.318,159.318,0,0,1-19.318-19.193,113.977,113.977,0,0,1-12.982-18.955,93,93,0,0,1-7.6-18.592,90.017,90.017,0,0,1-3.186-18.1c-.771-10.595.226-21.8,3.047-34.242a305.052,305.052,0,0,1,9.209-30.783c2.342-6.912,4.554-13.438,6.153-19.517,1.789-6.8,2.575-12.139,2.476-16.812-.191-9.023-4.335-22.249-11.984-38.248a368.449,368.449,0,0,0-29.558-49.85c-8.742-12.575-17.954-24.91-26.862-36.839-16.808-22.508-31.324-41.948-36.187-54.374a40.34,40.34,0,0,1-2.487-15.28,75.712,75.712,0,0,1,2.469-17.219c2.638-10.487,7.383-22.382,14.105-35.354a313.713,313.713,0,0,1,16.825-28.4c4.741-7.138,8.109-11.6,8.142-11.647L-60.826-6h-745.6c-.019.032-2.329,4.032-5.53,10.494a279.386,279.386,0,0,0-11.419,26.392,191.5,191.5,0,0,0-9.553,34.656c-2.225,13.361-2.2,25.232.069,35.285a98.711,98.711,0,0,0,5.616,17A168.044,168.044,0,0,0-818.6,135.04c6.592,11.6,14.614,23.416,23.108,35.928l.006.009c8.055,11.867,16.385,24.138,24.165,37.213a271.944,271.944,0,0,1,20.661,41.728,85.415,85.415,0,0,1,5.088,20.55,102.046,102.046,0,0,1,.368,19.982c-.968,13.133-4.011,25.916-6.953,38.279-6.969,29.282-13.552,56.938,9.557,82.369,7.911,8.706,18.148,16.806,32.217,25.491,12.566,7.757,26.686,15.054,41.635,22.779,14.486,7.486,29.463,15.226,44.616,24.18a151.656,151.656,0,0,1,16.987,11.884c5.482,4.349,10.933,9.078,16.2,13.652,16.912,14.674,34.4,29.847,56.907,36.278a51.723,51.723,0,0,0,14.4,1.977h.005a83.029,83.029,0,0,0,19.13-2.547c6.7-1.573,13.967-3.789,21.662-6.135,12.516-3.816,26.7-8.141,43.987-11.541a318.576,318.576,0,0,1,62.155-5.851c37.76,0,67.488,3.107,93.717,5.848,21.389,2.235,39.859,4.165,59.028,4.165,8.167,0,15.861-.353,23.522-1.079a233.357,233.357,0,0,0,24.778-3.7A203.586,203.586,0,0,0-126.9,511.583a249.23,249.23,0,0,0,35.047-19.916A255.61,255.61,0,0,0-69,474.233c5.285-4.546,8.144-7.445,8.172-7.473v17c-.145.152-3.56,3.713-9.695,9.109a295.294,295.294,0,0,1-27.7,21.45,308.8,308.8,0,0,1-43.616,24.976,277.729,277.729,0,0,1-57.453,19.687c-21.995,4.871-45.049,7.24-70.482,7.24-23.8,0-46.123-2.091-65.177-4.052-2.434-.25-4.845-.5-7.177-.746-16.995-1.774-31.671-3.306-44.22-3.306a100.749,100.749,0,0,0-14.1.864c-14.169,2-30.9,8.586-48.613,15.553-12.434,4.891-25.291,9.948-38.184,13.8a174,174,0,0,1-19.271,4.691A108.055,108.055,0,0,1-525.385,594.825Z" transform="translate(959.28 26.27)" fill="#fff"/>
      </g>
    </g>
    <g data-type="innerShadowGroup">
      <path id="Subtraction_13-2" data-name="Subtraction 13" d="M-481.039,646.543h0a57.272,57.272,0,0,1-14.062-1.667c-48.962-12.24-66.012-32.52-91.82-63.218-7.658-9.109-16.337-19.433-26.807-30.622-20.638-22.055-44.081-31.211-66.751-40.067-6.619-2.585-13.464-5.259-20.037-8.193a154.719,154.719,0,0,1-19.211-10.067A106.264,106.264,0,0,1-737.6,478.772a108.353,108.353,0,0,1-16.007-19.8A226.061,226.061,0,0,1-767.148,434.6a187.108,187.108,0,0,1-9.147-23.014,167.446,167.446,0,0,1-5.4-21.734,164.433,164.433,0,0,1-2.316-20.525,194.676,194.676,0,0,1,2.012-37.7c1.71-11.872,4.147-22.978,6.5-33.719,5.107-23.279,9.517-43.381,4.545-62.029-6.958-26.092-31.669-46.339-55.567-65.92-12.4-10.157-24.1-19.75-32.916-29.8a69.24,69.24,0,0,1-10.585-15.4,41.805,41.805,0,0,1-2.941-8.03A34.569,34.569,0,0,1-874,108.4a62.751,62.751,0,0,1,2.891-17.7,123.259,123.259,0,0,1,7.622-18.961A257.493,257.493,0,0,1-840.359,34.5c8.69-11.9,17.374-22.277,23.128-28.887C-811.044-1.5-806.761-5.956-806.719-6h15.378c-.032.046-3.34,4.491-7.991,11.6a310.554,310.554,0,0,0-16.5,28.3c-6.583,12.927-11.218,24.787-13.776,35.248-3.2,13.077-3.142,24,.167,32.451,4.8,12.263,19.032,31.2,35.512,53.13,9.119,12.133,18.548,24.679,27.51,37.57a360.241,360.241,0,0,1,25.238,41.9c6.844,13.512,11.709,25.873,14.069,35.747a53.1,53.1,0,0,1,1.552,10.885c.1,4.664-.671,9.968-2.422,16.69-1.564,6-3.726,12.429-6.014,19.232l0,.006c-6.408,19.046-13.671,40.633-11.792,64.085,2.178,27.185,16.369,51.495,43.383,74.32a91.675,91.675,0,0,0,16.775,10.911c6.384,3.362,13.507,6.583,21.755,10.312,17.443,7.887,39.15,17.7,66.341,34.618a212.635,212.635,0,0,1,33.159,25.412c8.99,8.392,16.337,16.616,22.819,23.872l.006.006c12.594,14.1,22.541,25.234,37.039,29.7a68.613,68.613,0,0,0,10.744,2.367,80.658,80.658,0,0,0,11.043.738h.005a107.623,107.623,0,0,0,18.5-1.7,171.975,171.975,0,0,0,18.786-4.444c12.545-3.653,25.032-8.455,37.107-13.1,17.226-6.624,33.5-12.881,47.563-14.871a100.717,100.717,0,0,1,14.1-.864c12.548,0,27.223,1.532,44.216,3.306h.006l.064.007c2.314.241,4.706.491,7.111.739,19.053,1.96,41.374,4.052,65.177,4.052,25.432,0,48.487-2.368,70.482-7.24a277.721,277.721,0,0,0,57.453-19.687,308.822,308.822,0,0,0,43.616-24.976,295.289,295.289,0,0,0,27.7-21.45c6.267-5.512,9.661-9.074,9.695-9.109V-6h7.458V510.492a67.14,67.14,0,0,1-6.4,10.7,118.562,118.562,0,0,1-9.173,11.358,146.879,146.879,0,0,1-14.193,13.567,193.725,193.725,0,0,1-46.564,28.377,262.662,262.662,0,0,1-33.929,12.118,335.41,335.41,0,0,1-42.066,8.942c-20.646,3.073-40.168,3.593-62.773,4.2-12.581.336-26.84.716-42.892,1.589-18.387,1-36.449,2.5-55.218,4.585a301.61,301.61,0,0,0-51.468,10.491c-15.577,4.536-29.981,9.856-42.69,14.55-11.288,4.169-21.948,8.106-31.869,10.948C-463.953,645.072-472.886,646.543-481.039,646.543Z" transform="translate(919.141 6.666)" fill="#7dc119"/>
      <g transform="matrix(1, 0, 0, 1, 0, -19.6)" filter="url(#Subtraction_13)">
        <path id="Subtraction_13-3" data-name="Subtraction 13" d="M-481.039,646.543h0a57.272,57.272,0,0,1-14.062-1.667c-48.962-12.24-66.012-32.52-91.82-63.218-7.658-9.109-16.337-19.433-26.807-30.622-20.638-22.055-44.081-31.211-66.751-40.067-6.619-2.585-13.464-5.259-20.037-8.193a154.719,154.719,0,0,1-19.211-10.067A106.264,106.264,0,0,1-737.6,478.772a108.353,108.353,0,0,1-16.007-19.8A226.061,226.061,0,0,1-767.148,434.6a187.108,187.108,0,0,1-9.147-23.014,167.446,167.446,0,0,1-5.4-21.734,164.433,164.433,0,0,1-2.316-20.525,194.676,194.676,0,0,1,2.012-37.7c1.71-11.872,4.147-22.978,6.5-33.719,5.107-23.279,9.517-43.381,4.545-62.029-6.958-26.092-31.669-46.339-55.567-65.92-12.4-10.157-24.1-19.75-32.916-29.8a69.24,69.24,0,0,1-10.585-15.4,41.805,41.805,0,0,1-2.941-8.03A34.569,34.569,0,0,1-874,108.4a62.751,62.751,0,0,1,2.891-17.7,123.259,123.259,0,0,1,7.622-18.961A257.493,257.493,0,0,1-840.359,34.5c8.69-11.9,17.374-22.277,23.128-28.887C-811.044-1.5-806.761-5.956-806.719-6h15.378c-.032.046-3.34,4.491-7.991,11.6a310.554,310.554,0,0,0-16.5,28.3c-6.583,12.927-11.218,24.787-13.776,35.248-3.2,13.077-3.142,24,.167,32.451,4.8,12.263,19.032,31.2,35.512,53.13,9.119,12.133,18.548,24.679,27.51,37.57a360.241,360.241,0,0,1,25.238,41.9c6.844,13.512,11.709,25.873,14.069,35.747a53.1,53.1,0,0,1,1.552,10.885c.1,4.664-.671,9.968-2.422,16.69-1.564,6-3.726,12.429-6.014,19.232l0,.006c-6.408,19.046-13.671,40.633-11.792,64.085,2.178,27.185,16.369,51.495,43.383,74.32a91.675,91.675,0,0,0,16.775,10.911c6.384,3.362,13.507,6.583,21.755,10.312,17.443,7.887,39.15,17.7,66.341,34.618a212.635,212.635,0,0,1,33.159,25.412c8.99,8.392,16.337,16.616,22.819,23.872l.006.006c12.594,14.1,22.541,25.234,37.039,29.7a68.613,68.613,0,0,0,10.744,2.367,80.658,80.658,0,0,0,11.043.738h.005a107.623,107.623,0,0,0,18.5-1.7,171.975,171.975,0,0,0,18.786-4.444c12.545-3.653,25.032-8.455,37.107-13.1,17.226-6.624,33.5-12.881,47.563-14.871a100.717,100.717,0,0,1,14.1-.864c12.548,0,27.223,1.532,44.216,3.306h.006l.064.007c2.314.241,4.706.491,7.111.739,19.053,1.96,41.374,4.052,65.177,4.052,25.432,0,48.487-2.368,70.482-7.24a277.721,277.721,0,0,0,57.453-19.687,308.822,308.822,0,0,0,43.616-24.976,295.289,295.289,0,0,0,27.7-21.45c6.267-5.512,9.661-9.074,9.695-9.109V-6h7.458V510.492a67.14,67.14,0,0,1-6.4,10.7,118.562,118.562,0,0,1-9.173,11.358,146.879,146.879,0,0,1-14.193,13.567,193.725,193.725,0,0,1-46.564,28.377,262.662,262.662,0,0,1-33.929,12.118,335.41,335.41,0,0,1-42.066,8.942c-20.646,3.073-40.168,3.593-62.773,4.2-12.581.336-26.84.716-42.892,1.589-18.387,1-36.449,2.5-55.218,4.585a301.61,301.61,0,0,0-51.468,10.491c-15.577,4.536-29.981,9.856-42.69,14.55-11.288,4.169-21.948,8.106-31.869,10.948C-463.953,645.072-472.886,646.543-481.039,646.543Z" transform="translate(919.14 26.27)" fill="#fff"/>
      </g>
    </g>
    <g data-type="innerShadowGroup">
      <path id="Subtraction_12-2" data-name="Subtraction 12" d="M-398.949,674.275h-.012a249.477,249.477,0,0,1-30.032-1.815,253.076,253.076,0,0,1-32.059-6.05,276.856,276.856,0,0,1-34.1-11.195,323.868,323.868,0,0,1-36.168-17.25c-16.771-9.277-31.921-17.387-46.573-25.23l-.006,0c-39.156-20.959-70.084-37.514-97.443-58.239a292.217,292.217,0,0,1-38.9-35.263,368.849,368.849,0,0,1-36.884-47.868,188.4,188.4,0,0,1-11.4-19.747,147.429,147.429,0,0,1-7.654-18.4,125.105,125.105,0,0,1-4.461-17.174,117.928,117.928,0,0,1-1.818-16.083,136.586,136.586,0,0,1,2.087-29.411c1.6-9.276,3.858-18.083,6.042-26.6v-.005c2.76-10.761,5.365-20.921,6.415-31.026a78.439,78.439,0,0,0,.213-15.112,62.246,62.246,0,0,0-3.237-15.188,109.4,109.4,0,0,0-8.533-18.361,194.958,194.958,0,0,0-12.061-18.365c-8.964-12.254-19.748-24.8-30.176-36.939l-.005-.006c-12.217-14.217-24.849-28.917-35.093-43.69A175.178,175.178,0,0,1-864.2,142.907a100.453,100.453,0,0,1-8.257-22.8,70.876,70.876,0,0,1-1.206-21.84,102.225,102.225,0,0,1,4.7-21.994c4.163-12.832,10.9-26.515,20.022-40.67a284.155,284.155,0,0,1,22.4-29.946C-820.3-1.646-815.975-5.958-815.932-6L19.636-6.666,19.65-6H-759.272c-.038.039-4.256,4.425-10.513,11.612-5.755,6.611-14.44,16.989-23.128,28.887a257.508,257.508,0,0,0-23.128,37.237c-6.976,14.17-10.513,26.5-10.513,36.663,0,22.658,23.061,41.554,47.477,61.559,11.782,9.653,23.964,19.635,34.035,30.435a112.2,112.2,0,0,1,13.239,16.9,76.021,76.021,0,0,1,4.879,9.056,62.427,62.427,0,0,1,3.416,9.53c2.274,8.526,2.746,17.86,1.487,29.374-1.126,10.3-3.508,21.156-6.031,32.653-9.21,41.981-20.672,94.225,21.9,161.064a108.359,108.359,0,0,0,16.007,19.8,106.256,106.256,0,0,0,17.867,13.938,154.689,154.689,0,0,0,19.211,10.068c6.57,2.932,13.415,5.606,20.036,8.192,11.264,4.4,22.911,8.949,34.174,15.1a135.1,135.1,0,0,1,16.643,10.655,121.979,121.979,0,0,1,15.936,14.314c7.406,7.914,13.818,15.068,20.019,21.987l.007.007c15.475,17.266,27.7,30.9,42.749,41.932,16.032,11.747,34.4,19.789,59.546,26.077a61.188,61.188,0,0,0,15.026,1.8c7.884,0,16.4-1.321,26.79-4.159,9.365-2.556,19.4-6.114,30.035-9.88,12.051-4.27,25.711-9.111,40.723-13.294a315.222,315.222,0,0,1,50.293-9.871c41.335-4.593,70.766-5.9,96.731-7.051,23.174-1.028,43.187-1.916,64.262-5.053,27.052-4.026,47.479-13.444,65.5-21.753,3.581-1.651,6.962-3.21,10.329-4.7a240.6,240.6,0,0,0,35.089-18.9,165.239,165.239,0,0,0,22.14-17.268,104.353,104.353,0,0,0,11.552-12.594,43.49,43.49,0,0,0,3.326-4.875l.89-78.088,2.729,132.674-.019.011c-.919.483-22.827,11.963-49.754,24.733-16.2,7.684-31.146,14.387-44.416,19.924-16.585,6.921-30.585,12.027-41.611,15.177-23.286,6.653-52.221,9.014-82.855,11.514-32.873,2.682-66.86,5.455-96.68,13.8-3.145.881-6.269,1.772-9.577,2.715-14.416,4.111-30.752,8.771-48.322,12.316A286.55,286.55,0,0,1-398.949,674.275Z" transform="translate(873.997 6.666)" fill="#94d332"/>
      <g transform="matrix(1, 0, 0, 1, 0, -19.6)" filter="url(#Subtraction_12)">
        <path id="Subtraction_12-3" data-name="Subtraction 12" d="M-398.949,674.275h-.012a249.477,249.477,0,0,1-30.032-1.815,253.076,253.076,0,0,1-32.059-6.05,276.856,276.856,0,0,1-34.1-11.195,323.868,323.868,0,0,1-36.168-17.25c-16.771-9.277-31.921-17.387-46.573-25.23l-.006,0c-39.156-20.959-70.084-37.514-97.443-58.239a292.217,292.217,0,0,1-38.9-35.263,368.849,368.849,0,0,1-36.884-47.868,188.4,188.4,0,0,1-11.4-19.747,147.429,147.429,0,0,1-7.654-18.4,125.105,125.105,0,0,1-4.461-17.174,117.928,117.928,0,0,1-1.818-16.083,136.586,136.586,0,0,1,2.087-29.411c1.6-9.276,3.858-18.083,6.042-26.6v-.005c2.76-10.761,5.365-20.921,6.415-31.026a78.439,78.439,0,0,0,.213-15.112,62.246,62.246,0,0,0-3.237-15.188,109.4,109.4,0,0,0-8.533-18.361,194.958,194.958,0,0,0-12.061-18.365c-8.964-12.254-19.748-24.8-30.176-36.939l-.005-.006c-12.217-14.217-24.849-28.917-35.093-43.69A175.178,175.178,0,0,1-864.2,142.907a100.453,100.453,0,0,1-8.257-22.8,70.876,70.876,0,0,1-1.206-21.84,102.225,102.225,0,0,1,4.7-21.994c4.163-12.832,10.9-26.515,20.022-40.67a284.155,284.155,0,0,1,22.4-29.946C-820.3-1.646-815.975-5.958-815.932-6L19.636-6.666,19.65-6H-759.272c-.038.039-4.256,4.425-10.513,11.612-5.755,6.611-14.44,16.989-23.128,28.887a257.508,257.508,0,0,0-23.128,37.237c-6.976,14.17-10.513,26.5-10.513,36.663,0,22.658,23.061,41.554,47.477,61.559,11.782,9.653,23.964,19.635,34.035,30.435a112.2,112.2,0,0,1,13.239,16.9,76.021,76.021,0,0,1,4.879,9.056,62.427,62.427,0,0,1,3.416,9.53c2.274,8.526,2.746,17.86,1.487,29.374-1.126,10.3-3.508,21.156-6.031,32.653-9.21,41.981-20.672,94.225,21.9,161.064a108.359,108.359,0,0,0,16.007,19.8,106.256,106.256,0,0,0,17.867,13.938,154.689,154.689,0,0,0,19.211,10.068c6.57,2.932,13.415,5.606,20.036,8.192,11.264,4.4,22.911,8.949,34.174,15.1a135.1,135.1,0,0,1,16.643,10.655,121.979,121.979,0,0,1,15.936,14.314c7.406,7.914,13.818,15.068,20.019,21.987l.007.007c15.475,17.266,27.7,30.9,42.749,41.932,16.032,11.747,34.4,19.789,59.546,26.077a61.188,61.188,0,0,0,15.026,1.8c7.884,0,16.4-1.321,26.79-4.159,9.365-2.556,19.4-6.114,30.035-9.88,12.051-4.27,25.711-9.111,40.723-13.294a315.222,315.222,0,0,1,50.293-9.871c41.335-4.593,70.766-5.9,96.731-7.051,23.174-1.028,43.187-1.916,64.262-5.053,27.052-4.026,47.479-13.444,65.5-21.753,3.581-1.651,6.962-3.21,10.329-4.7a240.6,240.6,0,0,0,35.089-18.9,165.239,165.239,0,0,0,22.14-17.268,104.353,104.353,0,0,0,11.552-12.594,43.49,43.49,0,0,0,3.326-4.875l.89-78.088,2.729,132.674-.019.011c-.919.483-22.827,11.963-49.754,24.733-16.2,7.684-31.146,14.387-44.416,19.924-16.585,6.921-30.585,12.027-41.611,15.177-23.286,6.653-52.221,9.014-82.855,11.514-32.873,2.682-66.86,5.455-96.68,13.8-3.145.881-6.269,1.772-9.577,2.715-14.416,4.111-30.752,8.771-48.322,12.316A286.55,286.55,0,0,1-398.949,674.275Z" transform="translate(874 26.27)" fill="#fff"/>
      </g>
    </g>
    <path id="Path_115" data-name="Path 115" d="M1614.034,345.374l16.838-10.115,18.515-1.924,19.37-6.265,19.259-28.128,18.626-5.59-14.415,6.888-11.014,14.79-12.457,20.23-37.885,4.335Z" transform="translate(-1305.505 -29.754)" fill="#bfbecb"/>
    <path id="Path_116" data-name="Path 116" d="M1524.478,376.421l21.823-6.67,17.578-6.3,13.877,9.263,17.115-2.964-20.816,6.67-10.177-8.893s-11.1,3.705-14.34,5.187,11.1,3.705,11.1,3.705l-22.666-2.223Z" transform="translate(-1305.538 -43.682)" fill="#bfbecb"/>
    <path id="Path_117" data-name="Path 117" d="M2105.593,403.537l11.966-2.931,12.837-.708,6.977,1.021h-12.958l-5.16.476-5.228,1.577-5.167.565-3.834,1.262-2.979-1.262-7.092-4.614Z" transform="translate(-1305.327 -47.525)" fill="#bfbecb"/>
    <g transform="matrix(1, 0, 0, 1, 0, -19.6)" filter="url(#Path_118)">
      <path id="Path_118-2" data-name="Path 118" d="M1723.581,266.809l12.665,22.708,6.317,3.243,5.992,5.449h0l9.88,13.622-5.993-9.471,5.993,9.471,11.337,1.427-9.232-3.243-11.985-18.552-8.422-3.243Z" transform="translate(-1305.46 -4.88)" fill="#59647b"/>
    </g>
    <path id="Path_120" data-name="Path 120" d="M2076.221,384.514l14.233,10.261-22.062-11.686Z" transform="translate(-1305.337 -47.584)" fill="#c2c6ce"/>
    <g class="cloud">
    <g transform="matrix(1, 0, 0, 1, 0, -19.6)" filter="url(#Path_128)">
      <path id="Path_128-2" data-name="Path 128" d="M2528.82,268.368h95.855a11.192,11.192,0,0,0-3.7-7.742c-3.655-3.119-10.922-4.734-10.922-4.734s-2.338-9.055-8.183-10.517-10.83,4.063-10.83,4.063-3.785-3.624-8.267-4.063-8.031,3.458-9.659,2.309c-3-2.117-7.362-5.549-13.488-4.859s-8.266,10.707-8.266,10.707-10.615-3.484-15.876,2.361A30.091,30.091,0,0,0,2528.82,268.368Z" transform="translate(-2336.34 -109.76)" fill="#f5f7f9"/>
    </g>
    </g>
    <g class="cloud2">
    <g transform="matrix(1, 0, 0, 1, 0, -19.6)" filter="url(#Path_125)">
      <path id="Path_125-2" data-name="Path 125" d="M2405.374,477.6h152.451s-7.541-3.836-10.419-6.819-11.516-6.251-11.516-6.251a13.12,13.12,0,0,0-3.29-10.229c-4.25-4.83-15.176-4.9-15.176-4.9s-3.058-9.872-8.4-9.872-14.807,6.819-14.807,6.819-14.258-1.989-19.742,0-12.064,11.933-12.064,11.933-12.75-6.677-18.1-3.978-12.065,10.229-12.065,10.229-9.734-8.24-13.709-3.978S2405.374,477.6,2405.374,477.6Z" transform="translate(-2283.68 -215.26)" fill="#f5f7f9"/>
    </g>
    </g>
    <g class="cloud3">
    <g transform="matrix(1, 0, 0, 1, 0, -19.6)" filter="url(#Path_127)">
      <path id="Path_127-2" data-name="Path 127" d="M2404.885,482h123.241a22.541,22.541,0,0,0-4-5.269c-2.369-2.185-6.947-3.473-6.947-3.473s-.778-6.86-4.776-8.394-10.275,1.158-10.275,1.158-3.854-9.024-7.209-9.024-6.121,2.853-6.121,2.853-3.462-8.972-10.091-11.364-11.44-.6-16.426,1.794-9.108,11.581-9.108,11.581-4.762-1.377-7.7,0-4.053,5.508-4.053,5.508-5.751-4.678-10.133-3.482-7.393,8.267-7.393,8.267-9.325-3.467-14.024,0S2404.885,482,2404.885,482Z" transform="translate(-1654.46 -222.39)" fill="#f5f7f9"/>
    </g>
    </g>
    <g class="cloud4">
    <g transform="matrix(1, 0, 0, 1, 0, -19.6)" filter="url(#Path_60)">
      <path id="Path_60-2" data-name="Path 60" d="M339.317,276.634s.415-16.589,14.515-23.224,25.713,6.636,25.713,6.636,1.538-2.223,3.587-2.025,2.842,2.842,2.842,2.842,7.544-34.537,33.384-32.623,31.519,31.806,31.519,31.806,7.72-8.518,16.015-4.689,8.454,10.5,8.454,10.5,7.816-2.52,14.515,0S502.3,276.634,502.3,276.634Z" transform="translate(282.82 -121.81)" fill="#f5f7f9"/>
    </g>
    </g>
    <path id="Union_4" data-name="Union 4" d="M-2257.946-47.259h0a19.512,19.512,0,0,0-4.5-5.975A9.046,9.046,0,0,0-2269-55.41a6.993,6.993,0,0,1,6.067.41,19.65,19.65,0,0,1,4.987,4.435A19.65,19.65,0,0,1-2252.959-55a7.337,7.337,0,0,1,6.02-.619,9.74,9.74,0,0,0-6.511,2.386,19.517,19.517,0,0,0-4.5,5.975h0Z" transform="translate(2597.557 988.651) rotate(22)" fill="#916464"/>
    <path id="Union_6" data-name="Union 6" d="M-2263.534-51.506h0a10.032,10.032,0,0,0-2.223-3.072A4.351,4.351,0,0,0-2269-55.7a3.341,3.341,0,0,1,3,.211,9.875,9.875,0,0,1,2.466,2.28,9.882,9.882,0,0,1,2.466-2.28,3.5,3.5,0,0,1,2.977-.318,4.694,4.694,0,0,0-3.22,1.227,10.029,10.029,0,0,0-2.223,3.072h0Z" transform="matrix(0.934, 0.358, -0.358, 0.934, 2706.593, 957.905)" fill="#916464"/>
    <path id="Union_5" data-name="Union 5" d="M-2260.2-49.646h0a14.287,14.287,0,0,0-3.577-4.343A7.7,7.7,0,0,0-2269-55.571a6.04,6.04,0,0,1,4.828.3,15.188,15.188,0,0,1,3.968,3.224,15.188,15.188,0,0,1,3.968-3.224,6.339,6.339,0,0,1,4.79-.45,8.255,8.255,0,0,0-5.181,1.735,14.288,14.288,0,0,0-3.577,4.343h0Z" transform="matrix(0.998, -0.07, 0.07, 0.998, 2612.639, -5.638)" fill="#916464"/>
    <path id="Union_8" data-name="Union 8" d="M-2264.31-52.612h0a7.618,7.618,0,0,0-1.907-2.316,4.1,4.1,0,0,0-2.783-.844,3.221,3.221,0,0,1,2.575.159,8.091,8.091,0,0,1,2.116,1.719,8.1,8.1,0,0,1,2.116-1.719,3.38,3.38,0,0,1,2.554-.24,4.4,4.4,0,0,0-2.763.925,7.618,7.618,0,0,0-1.907,2.316h0Z" transform="translate(2474.39 -605.94) rotate(-20)" fill="#916464"/>
    <path id="Union_9" data-name="Union 9" d="M-2261.625-50.672h0a11.977,11.977,0,0,0-3-3.641A6.452,6.452,0,0,0-2269-55.641a5.064,5.064,0,0,1,4.048.25,12.729,12.729,0,0,1,3.327,2.7,12.737,12.737,0,0,1,3.327-2.7,5.315,5.315,0,0,1,4.016-.377,6.922,6.922,0,0,0-4.344,1.454,11.986,11.986,0,0,0-3,3.641h0Z" transform="matrix(0.934, -0.358, 0.358, 0.934, 2430.315, -663.717)" fill="#916464"/>
    <path id="Union_7" data-name="Union 7" d="M-2262.71-52.721C-2265.316-54.253-2269-56-2269-56s3.684,1.176,6.29,2.175A39.236,39.236,0,0,1-2258.573-52a39.259,39.259,0,0,1,4.137-1.822c2.607-1,6.29-2.175,6.29-2.175s-3.683,1.747-6.29,3.279a30.983,30.983,0,0,0-4.137,2.85A30.968,30.968,0,0,0-2262.71-52.721Z" transform="translate(2774.576 764.923) rotate(14)" fill="#855c5c"/>
    <path id="Union_10" data-name="Union 10" d="M-2260.9-51.651C-2264.257-53.683-2269-56-2269-56s4.743,1.559,8.1,2.885a49.819,49.819,0,0,1,5.327,2.417,49.841,49.841,0,0,1,5.327-2.417c3.357-1.326,8.1-2.885,8.1-2.885s-4.743,2.317-8.1,4.349a39.919,39.919,0,0,0-5.327,3.78A39.9,39.9,0,0,0-2260.9-51.651Z" transform="translate(2477.029 -652.91) rotate(-22)" fill="#855c5c"/>
    <path id="bird" d="M549.316,91.648l.349-2.437a12.975,12.975,0,0,0-4.012-2.839,4.441,4.441,0,0,0-4.653.515s1.876-2.587,4.653-1.7a12.043,12.043,0,0,1,4.651,2.894,20.706,20.706,0,0,1,5.239-2.894,3.217,3.217,0,0,1,3.888,1.7s-1.231-1.7-3.888-.515a21.531,21.531,0,0,0-4.5,2.914l.3,2.361Z" transform="matrix(0.891, -0.454, 0.454, 0.891, -232.291, 242.576)" fill="#445263"/>
    <path id="bird-2" data-name="bird" d="M547.963,90.648l.292-2.07a10.869,10.869,0,0,0-3.359-2.412,3.677,3.677,0,0,0-3.9.438s1.57-2.2,3.9-1.447a10.073,10.073,0,0,1,3.894,2.458,17.274,17.274,0,0,1,4.386-2.458A2.686,2.686,0,0,1,556.43,86.6s-1.03-1.444-3.255-.438a18,18,0,0,0-3.767,2.476l.247,2.006Z" transform="matrix(0.891, -0.454, 0.454, 0.891, -222.571, 317.529)" fill="#445263"/>
    <path id="bird-3" data-name="bird" d="M545.727,88.779l.2-1.385a7.375,7.375,0,0,0-2.28-1.614,2.524,2.524,0,0,0-2.645.293,2.528,2.528,0,0,1,2.645-.968,6.845,6.845,0,0,1,2.644,1.645,11.77,11.77,0,0,1,2.978-1.645,1.829,1.829,0,0,1,2.21.968,1.728,1.728,0,0,0-2.21-.293,12.237,12.237,0,0,0-2.557,1.657l.168,1.342Z" transform="matrix(0.891, -0.454, 0.454, 0.891, -264.291, 267.105)" fill="#445263"/>
    <path id="bird-4" data-name="bird" d="M549.316,91.648l.349-2.437a12.975,12.975,0,0,0-4.012-2.839,4.441,4.441,0,0,0-4.653.515s1.876-2.587,4.653-1.7a12.043,12.043,0,0,1,4.651,2.894,20.706,20.706,0,0,1,5.239-2.894,3.217,3.217,0,0,1,3.888,1.7s-1.231-1.7-3.888-.515a21.531,21.531,0,0,0-4.5,2.914l.3,2.361Z" transform="translate(165.67 -255.519) rotate(34)" fill="#445263"/>
  </g>
</svg>
