<svg xmlns="http://www.w3.org/2000/svg" xmlns:xlink="http://www.w3.org/1999/xlink"  viewBox="0 0 84.753 53.13">
  <defs>
    <clipPath id="clip">
      <use xlink:href="#fill"/>
    </clipPath>
  </defs>
  <g id="interior" transform="translate(-109.797 -284.136)">
    <path id="Path_146" data-name="Path 146" d="M2827.617,431.465l7.748,2.069v18.355h46.9V433.534l8.972-2.069a25.842,25.842,0,0,0-7.34-1.646,13.529,13.529,0,0,0-5.914,1.646v15.4h-38.333v-15.4a5.436,5.436,0,0,0-4.282-1.646C2832.357,429.819,2827.617,431.465,2827.617,431.465Z" transform="translate(-2715.263 -115.373)" fill="none" stroke="#6cae31" stroke-width="1.5"/>
    <line id="Line_18" data-name="Line 18" x2="38.166" transform="translate(124.555 326.814)" fill="none" stroke="#6cae31" stroke-width="1.5"/>
    <line id="Line_19" data-name="Line 19" y2="4.85" transform="translate(143.261 326.814)" fill="none" stroke="#6cae31" stroke-width="1.5"/>
    <g id="Path_170" data-name="Path 170" transform="translate(134.152 284.136)" fill="none">
      <path d="M0,0H18.653V12.3H0Z" stroke="none"/>
      <path d="M 1.499998092651367 1.500002861022949 L 1.499998092651367 10.80180263519287 L 17.15331840515137 10.80180263519287 L 17.15331840515137 1.500002861022949 L 1.499998092651367 1.500002861022949 M -1.9073486328125e-06 2.86102294921875e-06 L 18.65331840515137 2.86102294921875e-06 L 18.65331840515137 12.30180263519287 L -1.9073486328125e-06 12.30180263519287 L -1.9073486328125e-06 2.86102294921875e-06 Z" stroke="none" fill="#6cae31"/>
    </g>
    <path id="Path_147" data-name="Path 147" d="M3231,241.574l7.676-3.519,3.485,3.519,3.627-2.319,2.794,2.065" transform="translate(-3096.472 49.284)" fill="none" stroke="#6cae31" stroke-width="1.5"/>
    <g id="Rectangle_10" data-name="Rectangle 10" transform="translate(183.733 309.093)" fill="none" stroke="#6cae31" stroke-width="1.5">
      <rect id="fill" width="1.358" height="25.52" stroke="none"/>
      <path d="M0,0.75h1.3576732873916626M0.75,0v25.519807815551758M1.3576732873916626,24.769807815551758h-1.3576732873916626M0.6076732873916626,25.519807815551758v-25.519807815551758" fill="none" clip-path="url(#clip)"/>
    </g>
    <path id="Path_149" data-name="Path 149" d="M3332.3,312.108h14.43l-2.98-10.589h-8.313Z" transform="translate(-3155.432 -2.832)" fill="none" stroke="#6cae31" stroke-width="1.5"/>
    <path id="Path_148" data-name="Path 148" d="M3338.535,512.074H3355.5l-2.121-2.508h-12.7Z" transform="translate(-3162.565 -175.599)" fill="none" stroke="#6cae31" stroke-width="1.5"/>
    <path id="Path_169" data-name="Path 169" d="M120.853,313.077s.33-6.241,2.548-7.614,10.413-1.848,20.376-1.848,16.7.356,19.478,1.848,3.568,8.277,3.568,8.277" transform="translate(0 1.396)" fill="none" stroke="#6cae31" stroke-width="1.5"/>
  </g>
</svg>
